<?xml version="1.0" encoding="UTF-8"?>
<svg version="1.1" viewBox="0 0 1567 1567" xmlns="http://www.w3.org/2000/svg">
<title>Artboard</title>
<desc>Created with Sketch.</desc>
<g fill="none" fill-rule="evenodd">
<g transform="translate(33 90)" fill-rule="nonzero">
<g transform="translate(24.2 88)">
<g id="Group" transform="translate(0 127)" fill="#F5E9D6">
<path id="Path" d="m189 296.2c-53.8-25-115.4-53.6-136.8-63.4-21.2-9.8-39-19-39.6-20.6-0.6-1.4 0.6-4.4 2.6-6.2 2-2 29.4-12.4 60.8-23 31.4-10.8 58.6-20.4 60.4-21.4 2-1 6.6-1.8 10.4-1.8 6.6 0 7 0.4 12.6 14.4 3 8.2 8.6 17.6 12.6 21.8 9.6 10.2 17.6 11.4 36.4 5.8 8.2-2.4 17.8-4 21.6-3.6 6.8 0.6 6.8 0.6 33.4 67.6 29.8 74.8 30.2 76 26.4 76-1.6 0-46.8-20.6-100.8-45.6z"/>
<path id="Path" d="m305 331.6c-2-5.8-9.4-24.6-16.4-41.6-24.2-58.6-39-98.6-37.4-100.2 1-1 12.2-4.8 24.8-8.8 113.6-35.2 122-37.2 122-30 0 7.4-83 189.6-86.6 190.4-2 0.4-4.2-2.8-6.4-9.8z"/>
<path id="Path" d="m0 190c0-1.2 8.2-20 18-41.8 10-21.6 27.8-60.8 39.6-87 21.4-47.6 21.4-47.6 28-47 7.4 0.6 2.6-9 46.2 93.4 12.4 29.4 14 35.6 9.8 37.2-66.2 23.2-132 45.6-136 46.4-3.6 0.6-5.6 0.2-5.6-1.2z"/>
<path id="Path" d="m183.4 187.4c-1.8-1.4-14.4-29.6-28.2-62.6-13.6-33-30.4-73-37-88.8-6.8-15.8-12.2-30.4-12.2-32.4 0-7 11.4-4.2 46.6 12 64.8 29.8 108.4 50.4 110 52 1 1 0.6 8.6-0.8 17-2.6 14.8-2.4 15.4 1.8 19.6 4.4 4.4 4.4 4.4 13.8-0.2 5.4-2.4 14-7.2 19.2-10.6 7.2-4.6 11-5.8 16-5 3.6 0.6 23 8.8 43 18.6 26.8 12.8 36.4 18.4 36 20.6s-13.6 7.2-45.6 16.8c-24.8 7.6-68.4 20.8-96.8 29.6-28.6 8.6-54.2 15.8-57.2 15.8-2.8 0-6.8-1.2-8.6-2.4z"/>
</g>
<g id="Group" transform="translate(336.2)" fill="#97A0A1">
<path id="Path" d="m612.4 1114.8c-3.6-2.2-6.6-5-6.6-6.2 0-4 12.6-19.8 15.8-19.8 2.6 0 8.6 3.2 14 7.2 1.8 1.6-11 22.8-13.8 22.8-1.6 0-6-1.8-9.4-4z"/>
<path id="Path" d="m496.6 1025.8c-53.2-68-57.6-76.6-56.4-106.2 0.6-15.6 1.6-20.2 7.2-31.4 18.6-37.6 63.6-53 100.2-34.4 20.2 10.2 33.8 27 39 48 2.8 11 9.8 74 12.6 111.8 1.2 15.8 1.2 15.8-5.6 14.2-3.8-0.8-12.2-2.2-18.8-2.8-11.8-1.2-11.8-1.2-22.2-26.2-5.8-13.8-10.6-26.2-10.6-27.8-0.2-1.4 3.4-6.2 8-10.6 11.2-11 15.8-21.6 15.8-37.6 0-16.6-4.6-26.6-17-37.6-25.8-22.6-61.6-16.2-79 14.2-5 8.6-6 12.6-6 23.4 0 16.2 4.6 26.4 16 36.6 12 11 22.6 15.2 38 15.4 13 0.2 13 0.2 23 25.4 5.6 14 10.2 26.6 10.6 28s-2.6 5.4-6.6 8.8c-4 3.6-9 9.8-11.2 14.2s-5.4 7.6-7.4 7.6c-2.2 0-13.2-12.4-29.6-33z"/>
<path id="Path" d="m406.8 982.4c-36-5.4-33-1.2-33-46.2 0-22.2-0.6-42.4-1.2-45-1-3.4-6.4-7.2-19.6-13.8-73.4-36.6-118.2-91.8-139.4-172-3.4-13-7.6-24.8-9.4-26-2.4-2-19-2.6-66.8-2.6-63.6 0-63.6 0-64.6-4.4-5.8-27-8.8-72-5-76.6 2-2.4 7.8-3 30.8-3 58.8 0 80-12.2 112.2-64.2 7.8-12.6 19.2-29.2 25.6-37.2 16.6-20.6 17-20.6 46.2 9.4 12.8 13.2 23.2 25 23.2 26.2 0 1.4-4.8 8.8-10.8 16.6-21 27.6-30.6 54.2-32.6 89.2-3.4 65.6 32 125 92.4 154 28.6 13.8 44.6 17 81 15.4 29.2-1.4 29.2-1.4 34.6 15.2 3 9.2 5.4 17.2 5.4 17.8 0 0.8-5.4 5.2-12.2 9.8-28.6 20.2-43.6 51.6-41.2 86.4 0.8 13.4 2.4 18.6 9.2 32.6 4.6 9 8.2 17.4 8.2 18.6 0 2.6-15.6 2.6-33-0.2z"/>
<path id="Path" d="m330.8 964.6c-89-29.6-159.6-84.8-209-163.8-14.4-23-26.2-48.2-35.8-77-12.4-36.8-18.6-33 51.6-33 60 0 60 0 62.2 11.6 3.4 16.2 13 42.6 22.4 61.4 26 52 63.4 90 117 119.2 22.6 12.2 22.6 12.2 22.6 51 0 35.6-0.2 38.8-3.4 38.8-2-0.2-14.4-3.8-27.6-8.2z"/>
<path id="Shape" d="m611 954.4c-0.6-2.6-1.6-12.2-2.2-21.6-2-25.6-4.4-35.6-12-51.2-8.8-17.8-27-35.8-46.4-45.2-13-6.2-14.6-6.6-36.2-6.6-22.6 0-22.6 0-27.4-15.6-6.8-21.6-6.8-22.8 4-27.4 5-2.2 14.2-7.4 20.6-11.6 12.4-8.6 37.6-34 43.6-44.2 6.4-11 10.4-9.2 52 23 20.8 16 39.6 30.6 41.8 32.6 3.8 3.2 4 5.8 4 81.8 0 67.6-0.4 78.8-3 80.4-4.4 2.8-29 10-33.8 10-2.6 0-4.4-1.6-5-4.4zm20.8-144.6c2-2.4 2-4.2 0.4-8-2.8-6.2-11.2-6.8-14.4-1-4.8 8.8 7.6 16.6 14 9z"/>
<path id="Path" d="m665.8 899c0-35.2 0.6-44.2 2.8-46 1.6-1.4 7.4-2.2 13.4-1.8 10.6 0.6 10.6 0.6 12.2 8.2 3.4 16.6 21 40.2 33.6 45.4 10.8 4.4 7.6 8.6-13.4 18.6-21.2 9.8-44.2 19.4-47 19.4-0.8 0-1.6-19.6-1.6-43.8z"/>
<path id="Path" d="m665.8 816c0-12.6-0.8-25.2-1.8-27.8-1.2-2.8-21-19.6-48-40.6-32.4-25.2-46-37-46-39.8-0.2-2.2 2-10.8 4.4-19 6-19 9.2-20 28-8.2 34.6 22 63.4 30 93.2 26 9.4-1.2 18.8-2.4 20.8-2.6 4-0.2 71.4 70 71.4 74.4 0 2.2-1.8 2.4-8.4 1-16.2-3-31.8-1.8-43.8 3.8-20.6 9.4-35 26-40 46.2-2.2 9.4-2.2 9.4-16 9.4s-13.8 0-13.8-22.8z"/>
<path id="Path" d="m654.8 687.4c-19-5.2-83-43.8-83-50 0-1.6 8.2-11.8 18.4-22.8 14.2-15.2 19.6-19.8 23.6-19.8 7.6 0 22.4 9.6 63 41 50.2 38.6 51.2 39.4 50.6 42.6-1.2 5.6-15.6 9-42.6 9.6-14.2 0.2-27.8 0-30-0.6z"/>
<path id="Path" d="m757.8 631.8c-7-1.6-18.6-4.8-26-7.2-15.4-4.8-60-23.4-63.4-26.2-4.8-4-2.6-7.6 7.8-12.8 12.2-6.2 31.4-23.8 39.2-36.2 3.4-5.4 6.8-8.6 9.4-8.6 11 0 159 49.8 159 53.4 0 6.2-31.4 24.4-56.2 32.8-22.8 7.6-49.4 9.4-69.8 4.8z"/>
<path id="Shape" d="m67.8 567.8c0-22.2 7.2-58 22.4-110.8 8.4-28.6 8.4-28.6 18.4-27.4 19.6 2.4 66.6 3.8 77.8 2.4 6.2-0.8 13.4-3.2 15.8-5.2 4-3.4 4.2-4 1.6-6.8-2.6-2.6-6-2.8-24-1-26.8 2.8-76-1-76-6 0-0.6 1.6-7 3.6-14.2 3.8-13 3.8-13 48.6-14.2 32.8-1 51.2-2.6 68.8-5.8 13.2-2.4 29-4.8 35.2-5.4 11.2-1 11.2-1 13.6 11.6 1.4 7 4.4 19.4 6.6 27.6 4.4 14.8 4.4 14.8 0.2 18-31.6 24.8-41 33.2-53.4 48-8 9.6-21.2 28.2-29.2 41.4-30.4 49-44.8 56.8-103.4 56.8-26.6 0-26.6 0-26.6-9zm68.891-36.641c0-12.401-10.053-22.453-22.453-22.453s-22.453 10.053-22.453 22.453 10.053 22.453 22.453 22.453 22.453-10.053 22.453-22.453z"/>
<path id="Path" d="m125.76 531.35c0 6.496-5.266 11.762-11.762 11.762-6.496 0-11.762-5.266-11.762-11.762 0-6.496 5.266-11.762 11.762-11.762 6.496 0 11.762 5.266 11.762 11.762z"/>
<path id="Path" d="m582.84 538.36c0 11.331-9.1856 20.517-20.517 20.517-11.331 0-20.517-9.1856-20.517-20.517s9.1856-20.517 20.517-20.517c11.331 0 20.517 9.1856 20.517 20.517z"/>
<path id="Path" d="m774.4 519.2c-32.4-2.6-40.6-3.8-40.6-6 0-1.6 4.8-8.2 10.8-14.6 12.8-13.6 21-27.8 27.4-46.2 4.4-12.4 5-13.2 11.8-14.4 3.8-0.8 47.6-2.6 97-4.2 49.6-1.6 97.4-3.6 106.6-4.2 15.4-1.2 16.4-1.2 16.4 2.6 0 5.6-14.2 25.4-29.6 41.2-23.6 24.2-47 38.6-74 45.6-18.6 4.8-64.8 4.8-125.8 0.2z"/>
<path id="Path" d="m289.4 492.4c-13-13.6-23.6-26-23.6-28 0-4.6 20-19 41.4-30.2 19.8-10.2 69.4-27.4 79.2-27.4 5.2 0 7.4 1.6 11.4 7.4 8.8 13.2 38.8 41.4 56.6 53.4 20.2 13.8 22.4 18.4 8 16.4-32-4.6-43-5.4-54.6-4.2-29.2 3.2-56 13.2-77.4 29.2-5.8 4.2-12 7.8-14 7.8-1.8 0-14-11-27-24.4z"/>
<path id="Path" d="m773.8 415.4c0-2 2.2-7.4 4.8-12 8.4-14.4 13.4-31 15.8-50.6 2.4-19 2.4-19 23.4-29.4 27.4-13.4 59.6-26.2 156.4-61.6 71.2-26 93.6-32.6 93.6-27.6 0 4.4-9.2 32.8-14 43.8-14.8 32.6-42.6 65-69.8 81.6-28.6 17.2-62 27.6-154.2 47.8-56.2 12.4-56 12.4-56 8z"/>
<path id="Path" d="m601.6 386.48c0 9.8515-7.9862 17.838-17.838 17.838-9.8515 0-17.838-7.9862-17.838-17.838s7.9862-17.838 17.838-17.838c9.8515 0 17.838 7.9862 17.838 17.838z"/>
<path id="Path" d="m649.8 380.4c0.2-12.6 0.2-12.6 40.4-37.6 22-13.8 44-28.6 49-33 7.6-7 9-9.4 10-18.4 1.2-10.4 1.2-10.4 30.4-28.8 16-10.2 43.6-27.6 61.2-38.8s39-24.6 47.6-29.8c28.6-17.8 29.8-20.2 33.8-60.2 1.2-13.4 3.4-25.4 4.8-27 1.4-1.8 15.4-11.2 30.8-21 15.4-10 39.6-25.4 53.6-34.4s27.4-16.6 30-16.6c4.2 0 4.4 0.6 4.4 17.6 0 32.4-9.2 72.8-22.4 99.4-14.8 29.4-40.4 56.6-71.8 76-10.4 6.4-39 22.8-63.8 36.6-48.6 27-85.4 47.4-174 96.6-31.2 17.6-58.4 31.8-60.4 31.8-3 0-3.6-1.8-3.6-12.4z"/>
<path id="Path" d="m503.8 370.4c-11.4-7.8-12.8-25.6-2.6-33.6 6.8-5.4 20.4-5.4 26.8-0.2 4.8 4 4.8 4-0.4 13.6-3 5.2-6.4 13-7.8 17.2-2.8 8.8-6.4 9.4-16 3z"/>
<path id="Path" d="m125 371.4c-9.6-0.8-9.6-0.8-8.4-7.2 0.8-3.6 1.8-10.2 2.6-15 0.6-4.6 2-9 3.2-9.8 1.2-0.6 18-2 37.2-2.8 23.6-1 44.2-3.2 62.6-6.6 40.8-7.8 38.2-8.4 42.4 11 2 9 3 16.6 2.4 17.2-2.2 2.2-57.8 10.4-84.2 12.4-27.4 2.2-38 2.2-57.8 0.8z"/>
<path id="Shape" d="m121 311c-2-20.2-2-20.2 27.6-20.2 53.8-0.2 87-16.2 104.2-50.6 3.8-7.6 7-15.2 7-16.6 0-7.4 8.6-20.4 16.2-24.6 7-4 11.2-4.6 30.4-5 22-0.2 22-0.2 25.4 22.8 2 12.6 4.2 27.2 5 32.2 1.4 9.4 1.4 9.4-27.4 18.8-46.2 15.4-51.6 19.2-51.6 35.6 0 6.8 0 6.8-15.4 10-31.8 6.8-54.4 9.6-86.8 10.8-33.2 1.2-33.2 1.2-34.6-13.2zm178.15-85.212c0-4.4663-3.6206-8.0869-8.0869-8.0869s-8.0869 3.6206-8.0869 8.0869c0 4.4663 3.6206 8.0869 8.0869 8.0869s8.0869-3.6206 8.0869-8.0869z"/>
<path id="Shape" d="m108.6 267.2c-5.4-10.4-27.2-33-39-40.4-10.8-7.2-11.8-9.6-5.6-15.2 5.6-5.2 13.2-20.4 15.8-32 5.8-25.4-13.6-62-38.2-72.8-10.2-4.2-10.2-4.4-9-11.6 1.8-12.2 16.2-38.6 27.8-51.6 13.4-14.6 36.6-30.6 46.8-32.2 4.2-0.6 9-2.2 10.6-3.6 5.8-4.8 26.8-7.8 55-7.8 24.8 0 29.8 0.6 44 5.4 20.2 6.6 37.4 17 55 33 31 28.2 44 59 53 126.4 1.2 9.2 1.2 9.2-19.4 11.2-37.6 4-49.4 12.6-62.6 46.2-9 22.8-18.2 34-34.2 41.6-14.4 6.8-25.4 8.4-64 9.8-32 1-32 1-36-6.4zm117.41-146.53c0-30.537-24.755-55.292-55.292-55.292-30.537 0-55.292 24.755-55.292 55.292 0 30.537 24.755 55.292 55.292 55.292 30.537 0 55.292-24.755 55.292-55.292z"/>
<path id="Path" d="m749.8 249.8c0-12.4 0.4-14.6 3-13.8 2.4 1 3-0.6 3-7.2 0-5.4-0.8-7.8-2.2-6.8-1.4 0.8-2 0-1.4-1.8 1-5.2 146.8-99.4 153.6-99.4 3.4 0 4 1.2 3.8 8.6 0 4.6-1.2 15.6-2.4 24.4-2.8 18.4 5 11.6-63.6 55-71.2 45.2-88.8 56-91.2 56-1.8 0-2.6-4.2-2.6-15z"/>
<path id="Path" d="m43.6 164.8c-10.2-3-32.2-14.8-38-20.2-7.4-7-7.4-12.6 0.2-20.2 5.8-5.6 7-6 18-5.2 9.6 0.6 13.4 2 19.4 6.8 8 6.4 20.6 28.6 20.6 36.4 0 3.8-1 4.4-7.4 4.2-4.2 0-10-0.8-12.8-1.8z"/>
</g>
<g id="Group" transform="translate(812.2 795.2)" fill="#AC7859">
<path id="Path" d="m212.2 476.4c-28.4-14.2-48.4-55.6-43.2-89.8 1.8-12 1.8-12 9.8-12s8 0 9.4 15.4c0.8 8.4 2.8 20.4 4.8 27 5 17.2 17.6 41.2 26.8 50.8 13.2 14 10.2 17.6-7.6 8.6z"/>
<path id="Path" d="m86.4 465.4c-11.2-5.4-28-24-33.8-37.2-6.4-14.2-9.4-34.6-7.8-51.2 1.4-13.6 1.4-13.6 9.8-13 8.2 0.6 8.2 0.6 9.6 16.8 1.4 17.4 10.8 48.6 18 60.8 2.4 3.8 7.4 10.6 11 14.8 11 13 8.4 16.6-6.8 9z"/>
<path id="Path" d="m256.4 435.6c-17-4-38-22.8-47.2-42.4-7-14.6-6.8-18.8 0.6-22.6 10.2-5.2 12.4-4 19.8 10.6 8.8 17 29.4 37.8 44.8 45.2 15.2 7.2 15.2 11.2 0 11-6.4-0.2-14.4-0.8-18-1.8z"/>
<path id="Path" d="m132.4 426.6c-25.2-7.8-48.2-32.4-52-56-1-6.2-0.6-7.2 4.2-9 11.4-4.2 13.8-3 20.6 11.6 7.6 16.4 18.4 29 35.6 41.6 7.2 5.4 13 10.8 13 12.2 0 3.4-10.2 3.2-21.4-0.4z"/>
<path id="Shape" d="m217.74 332.65c0 14.504-11.758 26.262-26.262 26.262s-26.262-11.758-26.262-26.262 11.758-26.262 26.262-26.262 26.262 11.758 26.262 26.262zm-19.746 0.21867c0-5.3302-4.321-9.6511-9.6511-9.6511-5.3302 0-9.6511 4.321-9.6511 9.6511s4.321 9.6511 9.6511 9.6511c5.3302 0 9.6511-4.321 9.6511-9.6511z"/>
<path id="Path" d="m54 344.2c-11.8-6-15.8-23.6-8.2-36 5.2-8.6 10.2-8.4 20.6 0.6 4.6 4 12.4 8.8 17.4 10.8 11.6 4.6 12.4 9.4 3.6 19.2-5.8 6.2-8.4 7.4-16.8 8.2-6.6 0.4-12-0.4-16.6-2.8z"/>
<path id="Shape" d="m128.69 275.74c0 16.363-13.265 29.627-29.627 29.627-16.363 0-29.627-13.265-29.627-29.627 0-16.363 13.265-29.627 29.627-29.627 16.363 0 29.627 13.265 29.627 29.627zm-21.599-0.70651c0-4.4518-3.6089-8.0606-8.0606-8.0606s-8.0606 3.6089-8.0606 8.0606c0 4.4518 3.6089 8.0606 8.0606 8.0606s8.0606-3.6089 8.0606-8.0606z"/>
<path id="Path" d="m219.2 300c-3-3-5.4-6.6-5.4-7.6 0-3.6 12.8-14.4 22-18.6 10.6-4.8 28-5.6 28-1.4 0 1.4-3.6 5-7.8 7.8s-11.8 9.8-16.4 15.2c-4.8 5.6-10.2 10.2-12 10.2-1.6 0-5.4-2.6-8.4-5.6z"/>
<path id="Path" d="m29.8 165.8c-2.8-0.8-5.2-2.6-5.4-4.2-0.4-1.6 7.8-14.6 18-29 16.6-23 19.4-26 24.6-26 7.4 0 10.8 6.4 10.8 21 0 16.8-6.2 27.6-19.8 34.6-10.8 5.4-18.4 6.4-28.2 3.6z"/>
<path id="Path" d="m4 146.2c-1.4-3.2-3-10.2-3.6-16-1.4-12.8 4.4-26.2 15-34.2 6.2-4.8 8.8-5.4 22.2-5.4 14.6 0 15.2 0.2 15.2 4.6 0 2.8-7.8 15.4-19 30.4-20.4 27.8-25 31-29.8 20.6z"/>
<path id="Shape" d="m335.43 50.548c0 27.878-22.6 50.478-50.478 50.478s-50.478-22.6-50.478-50.478 22.6-50.478 50.478-50.478 50.478 22.6 50.478 50.478zm-16.568-1.0982c0-16.016-12.984-29-29-29s-29 12.984-29 29c0 16.016 12.984 29 29 29s29-12.984 29-29z"/>
</g>
</g>
<g transform="translate(308.2 19)">
<g id="Group" transform="translate(322.4)" fill="#AC7859">
<path id="Shape" d="m140.8 810.2c-0.4-0.8-1.4-4.8-2.2-8.8-1.6-8.6-2-8.8-18.6-16.6-12.4-5.8-12.4-5.8-20.2-1.4-10 5.6-12.4 5.6-18.8-1.2-6.4-6.6-6.8-12.6-1.6-21.2 4-6.2 4-6.2-1.6-18.8-6.8-15.2-8.2-16.8-17.8-19.4-7.4-2-7.4-2.2-8-13.6-0.6-10.4-0.2-11.4 3.6-11.4 9.6 0 15.2-5.4 21-20.2 5.4-14 5.6-14.8 2.4-20.4-4.8-8-4.2-13.4 2-19.8 6.4-6.8 10.8-7 18.6-1.4 5.8 4.4 5.8 4.4 18.8-1.2 11.4-4.8 16-5.6 33.6-5.8 19.2-0.2 21.6 0.2 34 6.2 16.8 8 30.2 21.4 38.4 38.6 5.8 12.2 6.2 14.4 6.2 35-0.2 17.6-1 24.4-4.6 34-4.6 12-4.6 12-0.2 21.6 4.6 9.4 4.6 9.4-2.2 16.4-7.8 8.2-10.2 8.4-19.2 2.8-6.8-4-6.8-4-19.2 1.4-14.6 6.2-19.6 11-19.6 18.8 0 4-1.2 5.8-4.4 6.8-6.4 1.6-19.2 1.4-20.4-0.4zm64.325-100.08c0-29.459-23.881-53.339-53.339-53.339-29.459 0-53.339 23.881-53.339 53.339s23.881 53.339 53.339 53.339c29.459 0 53.339-23.881 53.339-53.339z"/>
<path id="Path" d="m139.8 750c-2.6-0.6-5.8-2.8-6.8-4.6-2.6-3.8-0.2-7.2 25.4-33.8 15.6-16.2 20.2-19.8 25-19.8 6.8 0 8.2 3.4 8.2 19.8 0 13-5.4 25.6-13.6 31.6-10 7.4-26 10.2-38.2 6.8z"/>
<path id="Path" d="m115.4 730.6c-3-3.6-5-27.6-3-35.8 1.8-7 13-19 20.6-22.2s29.2-3.6 34.8-0.8c2 1.2 3.8 3.6 3.8 5.6 0 3.6-46.6 55-50.8 56-1.4 0.4-3.8-1-5.4-2.8z"/>
<path id="Path" d="m243 727.4c3.2-17.6 1.6-37.8-4-51.8-3-7.2-5.4-14.2-5.4-15.4s7-7.8 15.4-14.6c16.6-13 16.4-12.8 33.6-7.6 10.4 3.2 21.2 1 29-5.6 8.6-7.2 12-14.8 12-26.4 0-8.8-1-11.2-7-18-5.6-6-7-9.4-7-15.4 0.2-5.8 3.8-33.4 6-44.2 0-0.4 1-0.6 2.4-0.6 1.2 0 3.8-1.2 5.4-2.6 3.6-3.2 17.6-7.4 24-7.4 4.2 0 4.4 0.4 3.2 20.6-0.4 11.2-1.4 35.2-2 53.2-1 26-2 34.6-4.8 41-4.4 9.8-92.6 101.8-98.4 102.8-3.6 0.6-3.8-0.2-2.4-8z"/>
<path id="Path" d="m213.4 638.6c-8-8.2-31-20-43.4-22-6.4-1-8.4-2.2-8-4.6 0.4-1.8 14.2-14 30.6-27.2 41.6-33.2 59.4-51 64.4-65 3.4-9.2 5-11.2 9.6-11.6 3-0.4 6.8 0.6 8.8 2.4 1.8 1.6 8.4 5.4 14.8 8.2 13 6 12.6 5 9.2 31.2-3.2 23.6-4 25-13.6 26.4-17 2.2-26.2 14.6-26.2 35 0 11.8 0 11.8-14.8 23.2-8.6 6.6-16.6 11.2-19.6 11.2s-7.6-2.8-11.8-7.2z"/>
<path id="Path" d="m600.6 632.8c-1-0.4-7.2-2.2-13.4-4-9.2-2.4-11.6-4-11.6-7 0-2.2-0.8-4-2-4-1 0-2 1-2 2 0 2.6-10 2.6-21.2-0.2-6.6-1.8-8.8-3.2-8.4-5.6 0.6-2.8 5.2-3.2 38.6-3.4 29.4 0 40.6-0.8 49.6-3.4 6.4-1.8 13.8-3.4 16.4-3.4 11.2 0 3 19.8-11.2 27-5 2.6-29 4-34.8 2z"/>
<path id="Path" d="m669 606.4c0.6-7.4 2-14.8 3.2-16 1-1.4 5-2.6 9-2.6 6.8 0 7 0 5.8 7.4-1.4 8.8-11 23.2-16 24.2-2.8 0.6-3.2-1-2-13z"/>
<path id="Shape" d="m203.8 529.6c-17.6-11-28.2-19.6-28.2-23.2 0-1.6 2-5.6 4.2-9 7.2-10 10-23.4 11.6-57.8 2.2-44.6 1-42.8 50.2-89.8 68.8-66 89-84 94.4-84 4.4 0 5 1.2 8.2 17.6 6.4 34.6 6.6 37.6 0.8 46-6.6 9.4-68 70.4-70.8 70.4-1.2 0-6.2-2.2-10.8-5-19.8-11.2-42.4-2.4-49.8 19.8-2.6 8-0.2 19.6 5.8 26.6 5 6 18 14.6 22.2 14.6 6.6 0 7.8 18 3 44.6-2.8 16-5.6 22.2-14.6 32-6.8 7.2-10.8 6.8-26.2-2.8zm120-205.8c4.6-2.6 5-10.6 0.6-14.2-3.4-2.8-8-1-11.6 4.8-1.6 2.4-1 4.2 1.6 7.2 4.4 4.8 4.2 4.8 9.4 2.2z"/>
<path id="Shape" d="m363.55 455.19c0 27.727-22.477 50.204-50.204 50.204s-50.204-22.477-50.204-50.204 22.477-50.204 50.204-50.204 50.204 22.477 50.204 50.204zm-21.373 0.028468c0-15.635-12.674-28.309-28.309-28.309s-28.309 12.674-28.309 28.309 12.674 28.309 28.309 28.309 28.309-12.674 28.309-28.309z"/>
<path id="Shape" d="m23.4 482.4c-1-3-3.8-13.8-6-24-5-22-4.4-23.2 11.2-27.8 5.8-1.6 20-6.6 31.2-10.8 11.4-4.4 22.6-8 24.8-8 3.2 0 6.2 5 14.8 23 6 12.8 10.4 23.4 10 23.8s-11.4 4-24.2 8c-13 4-30.8 10.4-39.8 14.2-8.8 3.8-17 7-18 7s-2.8-2.4-4-5.4zm30.179-29.462c0-4.5835-3.7157-8.2992-8.2992-8.2992s-8.2992 3.7157-8.2992 8.2992 3.7157 8.2992 8.2992 8.2992 8.2992-3.7157 8.2992-8.2992z"/>
<path id="Path" d="m6.8 408.4c-7.2-32.6-8.2-40.6-4.8-43.8 4-4 56.8-22.8 64-22.8 4.8 0 5.4 1 7.6 11.6 1.2 6.2 4.2 18.8 6.4 28s3.6 17 3.2 17.6c-2 2-64.8 22.8-69 22.8-3.6 0-4.8-2-7.4-13.4z"/>
<path id="Shape" d="m361.2 409c-6.6-7.6-12.8-12.2-20.6-15.4-7.4-3-11-5.6-10.6-7.6 0.4-1.8 12.4-10.6 26.6-19.8 82.2-52.6 95-60.4 99.8-60.4 5.2 0 5.2 0 5.2 27.6 0 31.8-0.2 32.4-17.6 44.2-26.4 17.8-66.8 42.2-70 42.2-1.8 0-7.6-4.8-12.8-10.8zm74.4-52.2c5-6-3.8-16.6-11.8-14-5.4 1.6-6.8 6.8-3.2 12.2 3.4 5.4 11.2 6.4 15 1.8z"/>
<path id="Path" d="m175.8 381.6c-3.6-10.4-2.6-31.6 1.8-41.6 6-13.2 15.2-23.4 25.2-28.2 7.4-3.6 11.6-4.2 23.8-3.6 17.8 0.8 23.2 4.2 19.4 12.6-3 6.4-13.6 13-21 13-7.2 0-16.6 5-19.4 10-1.2 2.2-1.6 7.2-0.8 11 1.2 6.4 0.4 8-9 18.2-5.6 6-10.2 12-10.2 13s-1.8 1.8-3.8 1.8c-2.4 0-4.6-2.2-6-6.2z"/>
<path id="Path" d="m310.6 245.4c2-11.4 5.6-18 13-24.4 5.2-4.4 8.2-5.2 18.2-5.2 6.4 0 11.8 0.8 11.8 1.8 0 0.8-7.8 9.4-17.4 18.8-12 11.8-19.2 17.4-22.2 17.4-4.4 0-4.6-0.6-3.4-8.4z"/>
<path id="Path" d="m144.79 18.374c0 10.124-8.207 18.331-18.331 18.331-10.124 0-18.331-8.207-18.331-18.331 0-10.124 8.207-18.331 18.331-18.331 10.124 0 18.331 8.207 18.331 18.331z"/>
</g>
<g id="Group" transform="translate(332 48)" fill="#727779">
<path id="Path" d="m214.6 1111.8c-3.6-3.2-6.6-7.4-6.6-9 0-5.6 8.4-15 13.6-15 6.8 0 16.4 7.4 16.4 12.8 0 4.4-11.4 17.2-15 17.2-1.2 0-5-2.8-8.4-6z"/>
<path id="Path" d="m160.6 1089.8c-11.6-5.2-24.2-14-43.4-30.6-27.4-23.4-43.2-39.4-43.2-43.4 0-5 3.4-5 21.4-0.8 19 4.4 53 8.8 69 8.8 13.4 0 13.4 0 28.4 19.2 17 21.4 18.2 25.6 10.2 37.4-9.4 13.6-25.4 17.2-42.4 9.4z"/>
<path id="Path" d="m668 1058.4c-24.2-4.2-49.2-17.8-69.2-37.6-18.8-18.8-75.4-89.4-76.4-95.4-1-5.8 10.8-17.6 17.4-17.6 5.4 0.2 14 7 86.2 68.8 20.4 17.4 49.4 41.6 64.6 53.8 17.6 14 27.4 23.2 27 25.2-0.6 2.6-4.4 3.2-22.6 3.4-12.2 0.2-24.2 0-27-0.6z"/>
<path id="Path" d="m752 1039.8c-8.2-2.2-20.6-6.6-27.4-10-22.2-10.2-24-11.8-122.2-94.8-54.6-46-56.8-48.2-55.6-53.8 0.6-3.2 1.2-12.6 1.2-20.6 0-13.6 0.4-14.8 4-14.8 4 0 61.2 37.8 214.6 141.6 44.2 30 63.4 44 63 46.2-1 5.2-15.4 8.6-39.6 9.4-18.4 0.6-26 0-38-3.2z"/>
<path id="Path" d="m106 802.2c-45.4-12.8-82-46.6-97-89.8-26.8-76.6 9.2-158.4 81.8-185.6 25-9.4 79.2-11.8 79.2-3.4 0 1.8-5.2 7.2-11.4 12-10 7.4-12.4 8.4-22 8.4-14 0-18 2.2-20.8 12.2-2.6 8.6-10 15.8-16 15.8-2 0-6.6-1.8-10.2-4-10.8-6.6-14.6-5.4-29.8 9.8-14.8 14.8-17 20.8-10.6 30 2.2 3 3 6.8 2.2 11.6-1.6 9.2-4 12-12.4 13.4-11.6 2.2-15 8.8-15 29.2 0 17.2 0.2 17.8 6.2 22.8 3.4 2.8 7.2 5.2 8.6 5.2 1.6 0 5 1.8 8 4.2 6.4 5 6.8 13 1.2 22.2-2.2 3.6-4 8.2-4 10.2 0 4.4 20.6 26.6 28.4 30.6 7.2 3.8 10.8 3.6 21-1.4 7.8-3.8 9.2-3.8 13-1.4 2.4 1.6 5.8 7.4 7.4 12.8 4 12.2 8.6 14.8 28.2 14.8 18.8 0 24-2.6 28.2-13.8 3.4-9.6 10-16.2 16-16.2 2 0 6.8 1.8 10.8 4.2 10 6 14.4 4.2 29.8-12.2 12-12.8 13.2-14.8 13.2-22.6 0-7.6 1.6-10 16.2-26.8 12.4-14.4 17.4-18.6 21.2-18.6 5.2 0 5.2 0.2 4 12.6-2.2 23.2-16 52.4-34.4 73-12.8 14.2-39 31.2-58 37.6-21.4 7.4-62.6 8.8-83 3.2z"/>
<path id="Path" d="m348.8 600.8c-0.8-1.6 0.4-6.8 2.2-11.6 2-4.6 4.2-16.4 4.8-26.4 1.2-18 1.2-18 10.2-17.8 5 0 21 2.2 35.6 4.8 30.8 5.4 31.6 6.2 18.8 22.8-8.8 11.6-22.2 21.4-37.4 27-13.4 5-32.6 5.6-34.2 1.2z"/>
<path id="Path" d="m383 527.8c-13.2-2-24.2-3.8-24.4-3.8-0.4-0.2-0.6-7.2-0.6-16 0-10.2 0.8-16.4 2.6-17.6 3-2.4 108.6-26.6 116.2-26.6 7 0 6.6 3-1.8 20.6-7.8 16.6-18.6 29.8-32.8 40.2-8.8 6.6-10.8 7.2-22.4 7-7-0.2-23.6-1.8-36.8-3.8z"/>
<path id="Path" d="m360 458.4c0-6.4 0.8-12.6 1.6-13.6 2.6-4 13.2-10.4 50.4-31 20.4-11.4 47-26.2 59.4-33.2s24.2-12.8 26.6-12.8c5 0 5 3.6 1 23-6.2 28.8-23.2 52.6-41.6 58-17 4.8-88 21-92.8 21-4.2 0-4.6-0.8-4.6-11.4z"/>
<path id="Path" d="m357.4 273.4c1-16.6 1-16.6 11.4-27.2 5.6-6 31.2-30.6 56.6-54.8 33.4-31.8 47-46 48.4-50.4 1.8-6.8 1.6-10.6-3.2-40-3-19.6-3-19.6 3.6-26.2 76.6-73.4 85.8-80.8 88.6-71.4 6.8 23 8.2 76.4 2.6 99-10.6 43.2-31.6 74.6-65.2 98.2-8.4 5.8-28.6 19.2-45.2 29.6-16.4 10.4-44.6 28-62.2 39.2-17.8 11.2-33.2 20.4-34.4 20.4-1.6 0-2-5.2-1-16.4z"/>
<path id="Path" d="m348 219.4c-4.6-22.4-4.6-22.4 4.4-30.6 5.2-4.6 28.2-26.2 51.6-48.2 46-43.2 52.2-47.2 54.8-34.6 0.6 3.6 1.8 12.6 2.6 20.2 1.2 13.6 1.2 13.6-9.6 24.2-45.4 44-95.8 91.4-97.2 91.4-1.2 0-4-10-6.6-22.4z"/>
</g>
<g id="Group" transform="translate(195.8 161.4)" fill="#33B743">
<path id="Path" d="m54.889 27.446c0 15.116-12.254 27.37-27.37 27.37-15.116 0-27.37-12.254-27.37-27.37 0-15.116 12.254-27.37 27.37-27.37 15.116 0 27.37 12.254 27.37 27.37z"/>
</g>
<g id="Group" transform="translate(0 223.6)" fill="#575A5B">
<path id="Path" d="m72 57c-23.8-7.8-25.6-11.2-8.4-16 6.2-1.6 17.4-4.8 24.6-7 23.2-6.6 29.4-4 19.2 8.6-10.6 13-23.4 18.2-35.4 14.4z"/>
<path id="Path" d="m0 45.2c0-6.6 9-20.4 21-32.4 14.8-14.8 20.4-16 33-6.8 4.2 3 10.6 6.8 14 8.2 10.4 4.2 7.2 7.4-13.8 14-11 3.4-26.8 9.2-35.2 13-17.2 7.8-19 8.2-19 4z"/>
</g>
<g id="Group" transform="translate(704.2 882)" fill="#5E402E">
<path id="Path" d="m24.672 315.52c0 6.7898-5.5042 12.294-12.294 12.294-6.7898 0-12.294-5.5042-12.294-12.294 0-6.7898 5.5042-12.294 12.294-12.294 6.7898 0 12.294 5.5042 12.294 12.294z"/>
<path id="Path" d="m145.82 31.651c0 17.48-14.17 31.65-31.65 31.65-17.48 0-31.65-14.17-31.65-31.65s14.17-31.65 31.65-31.65c17.48 0 31.65 14.17 31.65 31.65z"/>
</g>
<g id="Group" transform="translate(738.8 339.6)" fill="#3B2619">
<path id="Path" d="m22.67 11.353c0 6.2522-5.0684 11.321-11.321 11.321-6.2522 0-11.321-5.0684-11.321-11.321 0-6.2522 5.0684-11.321 11.321-11.321 6.2522 0 11.321 5.0684 11.321 11.321z"/>
</g>
</g>
<g transform="translate(404.6 690.8)" fill="#000">
<g id="a">
<path id="Shape" d="m649.2 692.2c-21.6-7-40.6-22.4-52.6-42.8-4-7.2-6.4-9.2-9-8.4-6.4 2-30.8-3-42.4-8.8-6.4-3-11.6-4.6-11.6-3.4 0 3.6 20.8 22.2 32.6 29 15.8 9 18 19.2 5.2 25.6-5.8 3-16.6 3.2-33.8 0.4-36.6-5.8-65.8-32.4-77.2-70.8-4.4-14.6-5-52-1.2-63.4 2.2-6.2 2.2-8.2-0.6-13.4-1.6-3.4-3.8-9.4-4.6-13.6-1.2-6.2-4.4-10-16.2-19.8-14.2-11.8-15-12.2-26.4-12.4-26-0.4-58-23.2-122.8-87.2-25.2-25-29.6-28.4-43.8-34.6-63.6-28.2-122-73.6-161.4-125.6-17-22.6-26.6-38-40.8-66-25-49.2-37.6-96.8-42-160.4-1-16.6-1-16.6 10.6-16.6 11.8 0 11.8 0 13.2 19.6 1.2 17.6 3.6 35.8 6.2 48 1 4.4 1 4.4 64.6 4.4 47.8 0 64.4 0.6 66.8 2.6 1.8 1.2 6 13 9.4 26 21.2 80.2 66 135.4 139.4 172 13.2 6.6 18.6 10.4 19.6 13.8 0.6 2.6 1.2 22.8 1.2 45 0 40.2 0 40.2 9.6 42.2 13.2 3 50.2 7.4 51.2 6.2 0.4-0.4-2.8-8.2-7.2-17.2-7.2-14.4-8.2-18.4-9.2-34.2-2-37 12.4-67.8 41.2-88 12-8.4 12-8.4 6.8-24.2s-5.2-15.8-34.4-14.8c-36.4 1.4-52.6-1.6-81-15.4-61-29.4-95.4-87.6-92.4-156 0.6-12.6 1.6-24.6 2.4-26.4 1.2-2.8 3.8-3.6 12.4-3.6 11.2 0 11.2 0 9.8 6.6-7 34.4-0.4 75.2 17.2 105 8.4 14.6 35.4 41.6 50 50 6.2 3.6 17.8 9 26 12 13.2 4.8 17.4 5.2 43.6 5.2 26.6 0.2 30.4-0.4 45-5.4 19-6.6 45.2-23.6 58-37.8 17.6-19.6 31.6-48.4 34.2-70.6 2-15.8-1.6-14.6-21 7.6-14.8 16.8-16.2 19.2-16.2 27 0 8-1 9.8-14.6 23.6-16.4 16.6-20.4 17.8-33.6 10.4-7.8-4.4-7.8-4.4-13-0.4-3 2-6.8 7.8-8.6 12.8-4.2 11.6-9.2 14-30.2 14-21.6 0-26.2-2.2-30-14.8-4.4-13.4-8-15.8-17.4-11-14.8 7.6-23.6 4.6-41-13.8-13-13.6-14.4-19-7.6-30 2.2-3.6 4-8.2 4-10.4 0-4-8.8-12-13.2-12-1.4 0-5.2-2.4-8.6-5.2-6.2-5.2-6.2-5.4-6.2-24.8 0-22.2 3-28.6 14.6-31 3.4-0.8 7.8-2.8 9.6-4.4 2.2-1.8 6.8-2.6 14.4-2.2 11 0.6 11 0.6 6.8 11.2-4.6 11-10.6 16.2-19 16.4-4.2 0-4.6 0.8-4 9.4 0.6 9 1 9.6 8 11.6 9.4 2.6 11.6 5 18.6 21 5.6 12.8 5.6 12.8 1.4 20.4-5.8 9.6-5.6 11.8 1.4 18.4 6 5.8 6 5.8 13.2 1.4 9.4-5.6 13.4-5.2 29 2.4 12 6 13 7 15 15.4 2.4 9.8 4.8 11.2 16.2 9 5.8-1 6.8-2 6.8-6.8 0-7.8 4.8-12.6 19.2-18.8 14.8-6.4 15.6-6.6 24.2-1.2 6.8 4.4 6.8 4.4 13.6-2.2 6.8-6.4 6.8-6.4 2.4-15.2-4.2-8.8-4.2-8.8 0.4-22.2 8-24 7.8-47.2-1-68-0.8-2 1.6-2.6 8.8-2.6 9.8 0 9.8 0 12.4 8.6 3.6 12.2 4.6 28.8 2.4 42-1 6.2-1.4 11.4-0.8 11.4 0.4 0 14.4-14 31.2-31.2 30.2-31.2 30.2-31.2 44-30.4 13.8 0.6 13.8 0.6-1.4 16.8-8.6 9-15.4 16.8-15.4 17.4 0 2.2 56.2 37.6 68 42.6 17 7.2 48.2 9 68.2 4 7-1.8 13.4-4 14.4-5 1.4-1.4-28.2-25.4-76-61.4-18.4-13.8-18.4-13.8 7.8-14.4s26.2-0.6 50.4 9.2c37.6 15.2 54.6 19.2 79.2 19.2 18.4 0 23.4-0.8 39.8-6.4 10.2-3.6 24.8-10 32.2-14.4 13.4-7.8 14.2-8 32.4-8 18.6 0.2 18.6 0.2 11.6 6.4-20.4 17.8-52.6 34.6-79.8 41.4s-67.8 5-91-3.8c-3.2-1.2-6-1.8-6.4-1.6-0.2 0.4 7 6.8 16.4 14.2 9.4 7.6 18 15.8 19.2 18.6 3 6.6-0.4 13.6-8.2 17-3.4 1.6-6.2 3.4-6.2 4.2s11.8 14 26.4 29c14.4 15.2 34.8 37.2 45 49 10.4 11.8 25 25.8 32.4 31.4 7.4 5.4 57.2 39 110.4 74.8 142.4 95.6 174.4 117.8 177.6 123.8 3.8 6.6 1.4 14.6-5.8 20-14.6 10.8-57.4 19-84.4 16-15.4-1.6-15.4-1.6-19.6 4-11.4 15.4-67.6 17.4-106 3.8-35.2-12.4-53.2-28.2-104.4-91.6-19.8-24.6-36.6-44.6-37.4-44.6s-11.2 5-23 11c-29.6 15.2-81.8 37-113.2 47.4-26.4 8.6-26.4 8.6-25.2 20.4 0.6 6.4 2 22.2 3.2 35 3.2 37.2 2.6 35.4 16.4 44.4 18.2 11.6 24.6 11 40.6-4 18.6-17.2 31.6-23 54-23.8 14.4-0.6 20.4 0 29.8 3.4 13.6 4.8 21.2 11 21.2 17.2 0 7-4.2 10.2-19 14.8-17 5-30.2 14.4-38.6 27.4-8.2 12.2-11 23-9.8 36.8 1.2 14.8 7.8 28.2 20.6 41.8 13.6 14.8 26.6 21.6 49.2 26.2 19.4 3.8 24.6 7.4 22.4 14.8-2.2 7-8.6 12.6-21.2 18.2-22.4 10-57.4 8.6-77.4-3.2-3.6-2.2-7-3.6-7.6-3-2.4 2.2 22 23.2 34.8 29.8 8.4 4.4 14.8 9.2 15.6 11.6 2 6-3.8 13.4-12.4 15.6-11.6 3.2-34.2 2.4-47-1.6zm0.4-30c-9.2-9.6-21.8-33.6-26.8-50.8-2-6.6-4-18.6-4.8-27-1.4-15.4-1.4-15.4-7.4-15.4-5.6 0-6 0.6-7.8 11-5 31.8 15.4 73 43.2 86.8 5.6 2.8 10.6 4.8 11 4.6 0.4-0.4-3-4.6-7.4-9.2zm-124.8-8.6c-16.8-20.6-28.6-50.4-30.8-78.4-1.4-16.2-1.4-16.2-7.6-16.8s-6.2-0.6-7.6 11.2c-3 26 5.4 52 22.4 70.6 8.4 9 23.6 19.8 28.2 19.8 0.4 0-1.6-3-4.6-6.4zm190.8-26.6c0-0.4-5-3.2-11.4-6.2-15.4-7.4-36-28.2-44.8-45.2-3.8-7.6-7.6-13.6-8.4-13.6-3.2 0-13.4 6.2-13.4 8.2 0 1.2 2.4 7.2 5.4 13.4 9.2 19.6 30.2 38.4 47.2 42.4 7.2 1.8 25.4 2.4 25.4 1zm-133-8.6c-1.2-1-7.6-6-14.4-11-16.2-12.4-25.6-23.6-33.2-39.8-6.6-14.2-7.6-15-16.4-11.6-4.6 1.8-5.2 2.8-4 7.6 5.8 23.6 27.4 46 51.6 53.4 9.6 3.2 19.2 3.8 16.4 1.4zm-1-37.4c0-3.8 1-11.2 2.2-16.8 3.2-15.2-1.8-23.4-20.6-33.8-8-4.4-15.4-7.6-16.4-7-2.2 1.4 0 17.4 3.4 24.2 1.6 3 4.8 9.4 7 14.4 5.4 11 20 28.4 22.6 26.8 1-0.6 1.8-4 1.8-7.8zm65.354-55.976c0-13.093-10.614-23.707-23.707-23.707s-23.707 10.614-23.707 23.707c0 13.093 10.614 23.707 23.707 23.707s23.707-10.614 23.707-23.707zm-129.75 3.9764c3.6-4 6.4-8.2 6-9.4s-4.8-3.8-9.6-5.6c-5-2-12.8-6.8-17.4-10.8s-9.2-7.2-10.4-7.2c-3.2 0-10.2 12.2-10.2 17.6 0 22.2 26.4 32 41.6 15.4zm66.6-24.8c5.2-9.8 5.2-9.8-0.4-13-3-1.8-5.8-3.2-6.2-3.2-0.6 0-3.8 4-7.4 9-6.4 9-6.4 9 0.2 13 3.6 2.2 7 4 7.6 4s3.4-4.4 6.2-9.8zm-25.937-36.009c0-14.971-12.136-27.107-27.107-27.107s-27.107 12.136-27.107 27.107 12.136 27.107 27.107 27.107 27.107-12.136 27.107-27.107zm114.34 15.209c6.8-7 14.6-14.2 17.4-16 5-3.2 5-3.2-3-3.2-10-0.2-24 6-32.4 14.4-6.6 6.2-6.6 6.2-1.2 11.8 3 3 5.6 5.6 6 5.6s6.4-5.6 13.2-12.6zm-200.6-6.6c0-3-10.4-10.8-14.4-10.8-2.6 0-11.6 10.2-11.6 13 0 0.6 3 3.6 6.6 6.8 6.4 6 6.4 6 13-0.4 3.4-3.4 6.4-7.2 6.4-8.6zm-46-11.8c6.6-3.4 16-16 16-21.4 0-1.8-6.8-12-15.2-22.4-15-19.2-15-19.2-28.4-19.2-16 0-49.8-4.4-70-9-8-1.8-15.2-3-15.8-2.4-1.8 2 4 8.2 23.6 26.2 50.6 45.6 72.2 57.2 89.8 48.2zm61.8-18.6c2.2-4.4 7-10.6 11-13.8 6.8-6.2 6.8-6.2-3.4-32.4-10.4-26-10.4-26-23.4-26.2-15.4-0.2-26-4.4-38-15.4-12-10.6-16-20.2-16-38.6 0-13 0.8-16.4 6-25.4 17.6-30.8 56.6-37.4 83-14.2 12.8 11.4 17 20.8 17 39.6 0 18.2-4.2 28.2-15.8 39.6-8.2 8-8.2 8 2.4 33.6 10.6 25.8 10.6 25.8 23.6 27 7 0.8 14.6 2 16.6 2.8 3.6 1.6 3.8 1 2.6-12.2-4.4-49.8-10-99.6-12.6-109.8-8.8-35.8-43.8-60-79.2-55-23.8 3.4-45 19-56 41.4-5.2 10.6-6.4 16-7.2 29.2-1.4 27.4 4 37.2 56.4 104.4 14.4 18.2 26.6 33 27.6 33 0.8 0 3.2-3.4 5.4-7.6zm463-14.2c0.6-0.8-11.2-11.6-26.4-23.8-15-12-44-36.2-64.4-53.6-64.8-55.6-81-68.6-84.2-68.8-3.6 0-16.6 12.8-15.6 15.6 2 5.6 62.6 79.4 76.6 93.4 20 19.8 45.2 33.6 69.2 37.6 9.8 1.6 43.8 1.4 44.8-0.4zm97.8-17c6.6-1.6 12.6-3.6 13.6-4.6 1.2-1.2-21.6-17.8-61.6-45-131.8-89.2-210.4-141.6-212.6-141.6-1.2 0-2 6.2-2 15.8 0 8.8-0.4 17.2-1.2 18.8-0.6 1.8 17.4 18.4 55.6 50.6 98.2 83 100 84.6 122.2 94.8 27.4 13 60.6 17.2 86 11.2zm-732.6-84c0-36.8 0-36.8-22.6-49-53.6-29.2-91-67.2-117-119.2-9.4-18.8-19-45.2-22.4-61.4-2.2-11.6-2.2-11.6-60.4-11.6-66.6 0-61-3.8-48.2 33 38.6 111.8 127.6 198.4 243.6 236.8 13.2 4.4 24.6 8 25.6 8.2 0.8 0 1.4-16.6 1.4-36.8zm172.2 21.4c8.4-4.4 11.8-7.6 15.4-14.6 7.4-14.8 4.8-37-4.4-37-4.2 0-42.2 51-39.6 53.2 1.6 1.6 7.8 3.2 13.6 3.6 2.2 0 9-2.2 15-5.2zm99.4-2.6c7.4-2.2 14.8-5 16.4-6 2.6-1.6 3-12.4 2.6-79.2-0.2-74.8-0.4-77.2-4.2-80-2.2-1.6-21-15.8-41.6-31.8-20.4-16-38.8-29-40.6-29s-5 2.8-7 6.2c-6 10.2-31.2 35.6-43.6 44.2-6.4 4.2-15.6 9.4-20.6 11.6s-9 4.8-9 5.8c0 1.2 2.2 9 5 17.6 4.8 15.6 4.8 15.6 27.4 15.6 21.6 0 23.2 0.4 36.2 6.6 19.4 9.4 37.6 27.4 46.4 45.2 7.6 15.6 10 25.6 12 51.2 1.6 21.2 2.6 26 5.2 26 1.2 0 8.2-1.8 15.4-4zm-123.6-34c10.4-14.2 19-27 19-28.4 0-1.8-3.6-2.6-13.2-2.6-11.2 0-14.2 0.8-20.2 5.4-10.2 7.8-16.4 21.4-15 32.4 1.4 10.4 5.2 19.2 8.2 19.2 1.2-0.2 10.8-11.8 21.2-26zm204.6 2.6c10.6-5 19.4-9.8 19.4-10.6s-2.6-2.6-6-4c-12.6-5.2-30.2-28.8-33.6-45.4-1.4-7.2-2-7.6-10.2-8.2-14.2-1-14.2-1.2-14.2 45.8 0 41.6 0 41.6 12.6 36.4 6.8-2.6 21.2-9 32-14zm96.499-75.57c0-26.469-21.457-47.926-47.926-47.926-26.469 0-47.926 21.457-47.926 47.926 0 26.469 21.457 47.926 47.926 47.926 26.469 0 47.926-21.457 47.926-47.926zm-115.3-18.43c8.8-35 47.4-58.8 82.2-50.8 4.8 1 9.2 1.8 9.4 1.4 1-1-67.4-72.2-69.2-71.8-0.8 0.2-9.6 1.4-19.2 2.6-31.6 4-58.2-3-93.2-24.2-9-5.6-17.8-9.8-19.4-9.4-2 0.4-5 6.6-8 17.2-2.8 9-4.6 16.8-4.2 17.2s21.4 16.6 46.4 36.2c26.6 20.6 46.4 37.6 47.6 40.4 1 2.6 1.8 15.2 1.8 27.8 0 22.8 0 22.8 11.8 22.8s11.8 0 14-9.4z"/>
<path id="Path" d="m541.41 467.34c0 5.8532-4.7449 10.598-10.598 10.598-5.8532 0-10.598-4.7449-10.598-10.598 0-5.8532 4.7449-10.598 10.598-10.598 5.8532 0 10.598 4.7449 10.598 10.598z"/>
<path id="Path" d="m571.2 207.2c-1.6-4-1.6-6.4 0-10.4 2-4.2 3.6-5 9.8-4.4 6.2 0.4 7.8 1.6 9.4 6.2 2.8 7.8-0.4 12.2-9.4 13-6.2 0.6-7.8-0.2-9.8-4.4z"/>
<path id="Shape" d="m354.6 89.2c-11-5-23.8-18-28-28-7-16.8-5.2-39.6 4.2-53.6 4.8-7.6 4.8-7.6 20.4-7.6 14.4 0.2 15 0.4 9.4 2.8-7.4 3.2-18.4 15.4-20.2 22.4-2 7.4 0 28 3 31.6 2.4 2.8 4.6 1 19-14.4 35.8-38.2 34.6-36.4 30.2-39.6-3.4-2.4-2-2.8 11.4-2.8 11.8 0 15.6 0.8 18.2 3.6 10.6 11.6 13.8 41.6 6.2 58.4-9.8 21.4-26.4 32-49.6 32-10.6 0-16.8-1.2-24.2-4.8zm33.8-13.4c11-3 18.6-9.2 23.2-18.8 4-8.2 5.2-21.6 2.8-30.6-2.4-8.6-9.2-4.2-32.4 20.4-17.6 18.4-22 24.2-20.4 26.2 4 4.8 15.4 6 26.8 2.8z"/>
</g>
</g>
<g fill="#000">
<path id="Shape" d="m404.2 689c0-15.2 4.6-59.2 8.2-78 4.4-23.4 13.4-57.6 27-103.2 23.8-78.8 26.2-106.6 12.4-138.8-3.8-9-3.8-9-11.4 9.8-17.4 42.6-84.8 189.4-89.4 194.2-6.4 6.6-18.6 10.4-28.4 8.6-10.6-2-38.6-14.4-162.4-72.2-25.8-12.2-65.8-30.8-89-41.4-54-24.8-60.8-28.8-66.6-37.2-8.6-12.4-6-22.2 19.2-77.2 12-26.2 30.8-67.2 41.4-90.8 10.8-23.6 22-48 25.2-54.2 6.2-12.2 14-18.6 26-20.8 13-2.4 19.6 0.2 118.6 46.8 30.6 14.6 57.4 26.6 59.2 26.8s6.6-3.4 10.6-8.2c3.8-4.6 13-13.4 20.2-19.6 9.2-7.8 14-13.6 16.4-20 3.6-9.6 15.8-22 23.4-23.8 3.8-1 5.4-3.8 8.2-13.6 15.4-55 64.6-98 124.2-108.4 55-9.6 104.6 4.4 147.6 41.4 11.4 10 11.4 10 44-21.6 32.4-31.8 32.4-31.8 32.4-49 0-15.6 0.4-17.8 5.6-24.4 7.8-10.4 16.2-14.2 30.4-14.2 14.6 0 23 4 30.8 15 10.8 14.6 9.8 33.2-2.2 47-10.6 12.2-22.8 15.8-40.2 12.2-7.6-1.6-7.6-1.6-40.8 31.2-33.4 32.8-33.4 32.8-27.2 42.6 14.8 24.2 19.8 43.4 29.8 113.6 13 92.2 22.8 139 35.4 169.8 11.2 27.4 41.4 75.4 47.4 75.4 1 0 3.4-2.4 5.2-5.2 2.6-3.8 3.8-12.4 5-34.4 1.6-29.2 1.6-29.2-4.2-38.2-20-30-19.6-68 0.8-94.8 8.4-11.2 23.6-22.4 37.2-27.6 11.6-4.6 34.8-6.2 48-3.2 7 1.4 7.2 1.2 21.2-16.4 11.8-14.6 14.4-19.4 15.6-27.2 2.8-20.8 20.4-41 42.2-48.4 11.2-3.8 32.8-4.2 41.6-0.8 6.6 2.6-1.8 10 98.4-84.8 95-89.8 96.4-91 104-91 8.2 0 12.2 4.4 15.8 18.4 13.8 53.2 11.6 113.2-5.6 154-1.8 4.2-2.8 7.6-2 7.6 2.4 0 160.6-100 182.2-115.2 13-9.2 19.2-10.6 25.8-6 3.4 2.6 3.8 6 4.4 38 0.8 38.2-1.6 56-10.8 86-12.2 38.8-40.8 79.2-72.2 101.8-4.8 3.4-8.2 6.4-7.8 7 0.6 0.4 23.4-7.4 50.8-17.4 49.2-18 59.4-20.4 64-15.8 3.6 3.6 3 16.4-1.6 35.6-11 46.2-30 80-63.4 112.2-25.2 24.4-48.6 37.6-90.6 50.8-23 7.2-23 7.2 8 6 17-0.6 42.8-1.6 57-2.2 23-1.2 26.6-1 29.6 2 10 10.2-3.8 38.4-36 74.4-13 14.4-13 14.4-13.4 33.2-0.2 15-1.2 20.2-4.8 27.2-10 19-26.2 31.8-46.4 37-8.8 2.4-11 3.8-12.2 8-0.8 2.8-3.4 8-5.8 11.4-4.2 6-4.2 6-24.4 6s-20.2 0-11.6-6.2c8.8-6.4 8.8-6.4-37.2-22.2-46.4-16-107.8-35.6-111.6-35.6-1.2 0-4.6 4-7.6 8.6-7.8 12.4-27 30-39.2 36.2-5.8 3-10 6.2-9.2 7.4 0.6 1.2 5.8 4.2 11.4 6.8 10.4 4.6 10.4 4.6-17.8 4.8-26.8 0.2-29 0-37-4.8-11-6.2-13.4-6.2-20 0-4.6 4.6-6.6 5.2-18.4 4.6-13.2-0.6-13.2-0.6 5.4-20.8 10.6-11.4 19.8-23.4 21-27.2 2-6.4 6.6-105.4 5-107.4-1.2-1.4-19.8 4.4-23 7.2-1.6 1.4-4.2 2.6-5.4 2.6-1.4 0-2.4 0.2-2.4 0.6-1.8 9-5.8 38-6 42.2 0 3.8 2.4 8.4 7 13.4 6.4 7.2 7 8.8 7 20.6 0 13.8-4 22.2-14.4 29.8-7.4 5.6-24.4 6.8-34.4 2.6-4.2-1.8-8.4-3.2-9.2-3.2-2.2 0-32 23.8-32 25.6 0.2 0.8 1.4 3.6 3 6.4 4.2 7.4 3.8 8-6.8 8-8.8 0-10-0.6-12.2-5.8-4.2-10.6-21-26-35.4-32.8-12.6-6-15-6.4-32.6-6-15.6 0.2-21 1.2-30.8 5.4-14 6.2-17.2 6.4-23.8 1.2-6.4-5.2-7-5-13.8 1.4-6.2 6-6.8 9.8-2.6 15.4 3.4 4.6 3.8 11.8 1 17.4-1.8 3-4.4 3.8-14 3.8-11.8 0-11.8 0-9.6-6 1.6-4.8 1.2-7.6-2-14-5.6-11.6-3.8-17 11.8-32.4 15.2-15.4 20.4-16.8 34-9.2 7.8 4.4 7.8 4.4 13.2 0.4 2.8-2.2 6.4-7.6 8-11.8 3.6-10.8 7.2-13 20.8-13 10.2 0 12.4-0.8 22.4-8.4 6.2-4.8 11.4-9.2 11.4-10 0-2.8-24.2-3.8-42.6-1.8-55.4 6.2-98.6 41.8-116.2 95.8-3.6 10.4-3.6 10.4-14.4 10.4-12.4 0-12.4 0-7.6-16.2 4.6-15 14.8-35 25-47.8 4.6-6 9.2-12 10.2-13.4 2.4-3-43.2-50.6-48.6-50.6-4.8 0-23.6 23.8-40.8 51.8-32.2 52-53.4 64.2-112 64.2-29.2 0-33 1-33 8.4 0 3-1.8 3.6-12 3.6-11.8 0-12 0-12-5.8zm624.6-27.6c7.8-3.8 17.4-10.4 22.8-16 9.2-9.2 16.2-19.6 14.4-21.4-1.8-1.6-62.4-11.4-65-10.4-2 0.8-2.8 5.2-2.8 15.6-0.2 9-1.6 18.8-4 25.6-2 6-3.2 11.6-2.6 12.6 2.2 3.8 23.6 0.2 37.2-6zm-537.4-0.8c27.8-5.2 41-16.2 64.8-54.6 8-13.2 21.2-31.8 29.2-41.4 12.4-14.6 21.8-23.2 53.2-47.8 3.6-2.8 3.6-3.6 0.8-11.4-1.6-4.6-4.6-16.2-6.4-25.8-3.4-17.2-3.4-17.2-12.6-16.2-5 0.6-20 3-33.2 5.4-17.4 3.2-36.2 4.8-68.8 5.8-44.8 1.2-44.8 1.2-48.4 13.6-4.2 14.8-6.2 13.6 25.6 16.6 16.6 1.6 28.6 1.6 44.8 0 16.8-1.6 22.8-1.6 25 0.2 4.4 3.6 3.2 9.4-2.6 13.2-4.6 3-10.2 3.6-39.6 3.6-18.6 0-40.4-0.8-48.2-1.6-14-1.6-14-1.6-22.4 27-14.6 51-22.4 88.4-22.4 108.6 0 7 0 7 24.6 7 13.6 0 30-1 36.6-2.2zm382-9c14.8-11.4 14.8-11.4 14.8-23.2 0-20.4 9.2-32.8 26.2-35 5.8-0.8 8.6-2.4 9.8-5.4 1.4-3.8 6-34.6 6-40.4 0-1.4-5.2-4.8-11.4-7.8-6.4-2.8-13-6.6-14.8-8.2-5.8-5.2-10-2.6-14.2 8.6-5 13.8-17.8 27.4-48 52-53.8 43.6-49.8 39-38 41.6 14.4 3.4 34.2 13.4 42.2 21.8 3.8 4 8.2 7.2 9.8 7.2s9.6-5 17.6-11.2zm390.6-3.8c7.6-3.8 16.2-14.2 16.2-19.4 0-3.4-1-3.8-5.4-3-3.2 0.6-13.2 2.6-22.6 4.4-13.4 2.6-23.4 3-46.4 2.2-37.6-1.4-40.4 1.2-7.6 7.8 2.8 0.4 12.2 3.2 21 5.8 18.2 5.6 36.6 6.6 44.8 2.2zm-323.27-21.382c0-9.9173-8.0395-17.957-17.957-17.957s-17.957 8.0395-17.957 17.957c0 9.9173 8.0395 17.957 17.957 17.957s17.957-8.0395 17.957-17.957zm371.47-4.418c5.2-10.8 5-13.2-0.8-13.2-6.6 0-8.6 3.4-9.6 16.6-0.8 11-0.8 11.2 2.6 8.2 2-1.8 5.6-7 7.8-11.6zm-53.6-17c27-7 50.4-21.4 74-45.6 13-13.4 29.6-35.4 29.6-39.2 0-1.2-5.2-1.4-13.4-0.8-7.6 0.8-54.6 2.6-104.6 4.4-50 1.6-94.2 3.4-98 4.2-6.8 1.2-7.4 2-11.8 14.4-6.4 18.6-14.8 32.6-27.6 46.6-6.2 6.6-10.8 12.2-10.4 12.6 2 1.6 84.6 6.6 114 7 26.8 0.2 36-0.6 48.2-3.6zm-569.8-10c14.4-10.8 33-19.8 51.2-24.6 18-4.8 55.4-5.8 76-1.8 6.8 1.4 13 2.2 13.4 1.6 0.4-0.4-7-6-16.6-12.6-17.8-12-47.8-40.2-56.6-53.4-3.2-4.6-6.6-7.4-9.4-7.4-8 0-59.4 18.2-77.2 27.4-17 8.8-41.4 25.4-41.4 28.2 0 2 46.8 50.4 48.6 50.4 1 0 6.2-3.6 12-7.8zm391.6-5.4c14.2-10.4 25-23.6 32.8-40.2 8-16.8 8-16.6 3.8-16.6-6.2 0-111.8 24.6-114.2 26.6-2.2 1.6-4 29-2 29.6 4 1.4 51.2 7.4 59.2 7.6 9.2 0.2 12-0.8 20.4-7zm-769.2-42.2c-1.6-4.2-14.2-35.4-27.6-69.6-24.8-62-24.8-62-32.6-61.8-4.2 0-13.6 1.8-20.8 3.8-24.6 7-37.8-0.8-48.6-28.6-5-12.4-6.4-14.4-10.6-14.4-2.6 0-6.4 0.8-8.4 1.8-1.8 1-29 10.6-60.4 21.4-31.4 10.6-58.6 21-60.8 23-4.6 4.2-11.4 0.4 70.8 38.4 34.6 16 94 43.6 132 61.2s69.2 32.2 69.4 32.2c0.4 0-0.8-3.4-2.4-7.4zm48-43.6c46-102.2 58.8-131.2 60-135 2.4-7.6 4-8-113.6 28.2-10.8 3.2-21.8 6.8-24.4 7.8-4.6 1.8-4.6 1.8 8.8 36.4 7.6 19 19.4 49 26.6 66.6s14.2 35.4 15.6 39.6c1.4 4.4 3.2 7 4 6 0.8-0.8 11.2-23.2 23-49.6zm501 43.6c8.8-10 11.4-17 14.2-38 2.8-20.6 1.4-32.6-3.8-32.6-5.4 0-19-9.6-23.8-16.6-11.4-17-5-40.8 13.6-50.4 9-4.8 25.4-3.8 35.6 2 8.8 5.2 8.8 5.2 40.6-26.4 38.4-38.2 42.6-43.6 40.8-54-6-36-8.2-44.6-10.8-44.6-3.2 0-33.6 27.6-92.4 84-49.2 47-48 45.2-50.2 89.8-1.6 35-4.4 47.6-12 58.4-4.6 6.6-4.6 6.6 3 12.6 9.4 7.8 33.4 23 36.4 23 1.4 0.2 5.2-3.2 8.8-7.2zm186-21.6c56.8-13.2 58.2-13.6 67.4-23.6 4.4-4.8 10.4-12.6 13.2-17.6 8-14 16.2-47.8 11.4-47.8-1.2 0-12.2 5.8-24.6 12.8s-39 21.8-59.4 33.2c-37.2 20.6-47.8 27-50.4 31-2.6 3.6-1.8 21 1 21 1.2 0 20-4 41.4-9zm-54.741-51.444c0-26.27-21.296-47.566-47.566-47.566s-47.566 21.296-47.566 47.566 21.296 47.566 47.566 47.566 47.566-21.296 47.566-47.566zm-275.06 8.4439c21.4-6.6 21.4-6.6 11.2-27.8-5.4-11.6-10.4-21.6-10.8-22.2-0.4-0.4-5 0.8-10.2 2.8s-19.8 7.2-32.4 11.6-24 9-25.4 10.2c-1.8 1.8-1.6 6.2 1.4 19.6 6.8 30.4 4.8 28.8 26.4 19.8 10.2-4.2 28.2-10.6 39.8-14zm497.8 4.8c97.8-22.6 125-33.8 156.2-64.8 25.6-25.2 42.2-52.8 51.4-85.8 4-14.2 4-14.2-0.8-14.2-5 0-141 49.2-191.8 69.2-15.4 6.2-37.4 15.8-49 21.4-21 10.4-21 10.4-23.4 29.4-2.4 19.6-7.4 36.2-15.8 50.6-2.6 4.6-4.8 9-4.8 9.6 0 2 16.2-1.4 78-15.4zm-142-40.6c88.6-49.2 125.4-69.6 174-96.6 62.2-34.4 80.4-46 97.6-62.4 31.8-30.4 49.6-65.4 57.4-113.8 3.8-23.2 4-49.4 0.6-49.4-1.4 0-14 7.6-28 16.6s-38.2 24.4-53.6 34.4c-15.4 9.8-29.4 19.2-30.8 21-1.4 1.6-3.6 13.6-4.8 27-4 40-5.2 42.4-33.8 60.2-8.6 5.2-30 18.6-47.6 29.8s-45.2 28.6-61.2 38.8c-29.2 18.4-29.2 18.4-30.4 28.8-1 9-2.4 11.4-10 18.4-5 4.4-27 19.2-49 33-40.2 25-40.2 25-40.4 35.6 0 5.6 0.8 10.4 1.6 10.4s27.2-14.2 58.4-31.8zm-194 6.4c1.4-4.2 4.6-11.4 7.2-16 4.8-8.4 4.8-8.4 0.4-11.4-9.6-6.8-25.6-1.4-28.4 9.4-1.8 7.6 1.6 16.2 8.8 21 3.6 2.4 7.2 4.4 8.2 4.4 0.8 0 2.6-3.4 3.8-7.4zm-337 3.2c24.6-1.8 82-10.2 84-12 0.2-0.4-0.8-7.4-2.6-15.2-2.4-11.8-3.8-14.6-6.8-14.6-2 0-16 2.4-31.2 5.2-18.4 3.4-39 5.6-62.6 6.6-19.2 0.8-36 2.2-37.2 2.8-1.2 0.8-2.6 5.8-3.4 11.4s-1.8 11.4-2.4 13c-0.8 2 1.2 3 8.6 3.6 19.2 1.4 26 1.4 53.6-0.8zm141.6-30.2c23.8-8.2 29.4-10.8 28.6-13.4-2-6-7-27.2-9.2-38.6-1.6-8.6-3.2-11.6-5.6-11.6-5.6 0-58.6 19.4-61.8 22.6s-2.8 5.6 4.8 40c3.6 16.2-0.4 16.2 43.2 1zm350.8-6.8c38.6-24.2 49.8-32.2 53.4-37.2 4.6-6.4 4.6-55.6 0.2-55.6-1.6 0-10 4.4-18.6 9.8-26.2 16.4-101.2 64.6-104 66.8-2 1.6 0 3.4 9 7.4 8 3.8 14.8 8.8 20.8 15.8 4.8 5.6 9.4 10.2 10.2 10.2s13.8-7.8 29-17.2zm-467.4-13.8c10.4-1.6 26-4.6 34.6-6.4 15.4-3.2 15.4-3.2 15.4-10 0-16.4 5.4-20.2 51.6-35.6 28.2-9.2 28.6-9.4 27.4-14.8-0.6-2.8-2.8-16.4-4.8-30.2-3.6-25-3.6-25-23.8-24.6-25 0.4-34 4.4-40.4 18-2.2 4.6-4 9.8-4 11.4 0 1.4-3.2 9-7 16.6-17.2 34.4-50.4 50.4-104.2 50.6-18 0-24.8 0.8-26.6 2.8-1.4 1.6-1.8 7-0.8 15.2 1.2 12.6 1.2 12.6 32.4 11.4 17.2-0.8 39.8-2.6 50.2-4.4zm-468.4-25.2c34.4-12 63.4-21.8 64.4-21.8 5 0 3.4-6.6-7.2-31.6-42-99.2-40.2-95.4-45.2-96-4.2-0.4-7 4.8-35.6 67.8-52.4 115.8-48.6 106.2-43.4 104.6 2.4-0.6 32.6-11 67-23zm716.4 22.4c0-1 4.6-6.8 10-12.8 8.4-9.2 10-12 8.8-16.2-3-12 6.8-23.2 20.2-23.2 7 0 17.8-6 20.8-11.6 3.2-6-2.2-9.2-17-10-21.2-1.4-36.4 9-46.8 31.8-4.4 9.8-5.2 27.6-1.8 37.6 2 5.8 5.8 8.6 5.8 4.4zm-542.8-16c28.4-8.8 71.6-21.8 95.8-29.2 24.2-7.2 44.8-14 45.6-14.8 1.6-1.6-66-35-75.6-37.4-3.6-0.8-7.2 0.2-12.6 3.8-11.6 7.6-27.8 15.4-32 15.4-2 0-5.4-1.8-7.4-4-3-3.2-3.4-6-2.2-15.4 0.8-6.4 1.6-13.8 1.8-16.4 0.4-4.4-3-6.4-39.6-23.6-99.4-46.6-113-52.4-113-46.8 0 0.8 5.4 14.6 12.2 30.4 6.6 15.8 23.4 55.8 37 88.8 13.8 33 26.4 61.2 28.2 62.6 1.8 1.2 4.8 2.4 6.6 2.4s26.6-7.2 55.2-15.8zm274.2-30.2c27.8-4.8 43.8-18.8 55.6-48.6 13.2-33.4 25-42.2 62.4-46 20.2-2.2 20.4-2.2 19.6-7.4-0.4-2.8-2.4-14.4-4-26-7-44.8-22.2-76.2-49-100.4-17.8-16-34.8-26.4-55-33-14-4.6-19.2-5.4-42-5.4-26.2 0-47.4 3-53 7.8-1.6 1.4-6.4 3-10.6 3.6-10.2 1.6-33.4 17.6-46.8 32.2-10.4 11.6-25 37.6-27.8 49.6-1 4.8-0.4 5.6 9 9.6 25.4 11 44.4 48.4 38.4 75.8-2.6 12.4-8.8 25.2-15.6 32.4-4.8 5.2-4.8 5.2 5.2 11.6 11.8 7.6 33.6 30.2 39 40.6 3.8 7.2 3.8 7.2 34 6.2 16.6-0.4 35-1.8 40.6-2.6zm509.6-37.6c94.4-59 107-68.8 126-97.4 8.8-13.4 17.4-34.4 22.4-54.4 6.6-27 2.4-98.6-5.8-98.6-1.6 0-36.4 32.2-81.2 74.8-6.4 6.2-6.4 6.6-4.6 16.6 4.4 22.8 6 42.2 4.2 49-1.6 5.4-12.4 16.8-48.6 51.2-25.4 24.2-51 48.8-56.6 54.8-10.2 10.4-10.4 10.8-11.4 25.2-0.8 14.6-0.8 14.6 4.4 11 2.8-1.8 26-16.4 51.2-32.2zm93 9.6c37.2-23.4 89.8-56.8 102.6-65 12.4-8 12.4-8 14.8-24 3-20.2 3.2-29 0.6-29-2 0-69.6 42.8-123 77.8-28 18.4-28 18.4-29.4 27.8-0.6 5.2-1.4 15-1.4 22-0.2 14.6-4.6 15.8 35.8-9.6zm-58.2-113.4c10.8-10.6 10.8-10.6 9.4-23-2.4-21-3.4-23.8-7.4-23.2-1.8 0.4-22.6 18.6-45.8 40.4-23.4 22-46.4 43.6-51.2 48-8.8 8.2-8.8 8.2-4.6 28.6 4.4 20.4 4.4 20.4 46.6-20 23.2-22.2 47-45 53-50.8zm-687.8 78.4c7.2-5.2 15.8-14.8 16-17.4 0-2.6-5.8-1.8-19.8 2.2-7.2 2.2-18.6 5.4-25.2 7.2-13 3.8-12.6 5 4 10.2 12 3.8 17.6 3.4 25-2.2zm-41.4-25.2c20-6.2 20-6.2 9.4-12-6-3.2-12.2-7.2-14-8.8-6.2-5.6-12-3.4-25 9.6-10.2 10.2-21 25.8-21 30.2 0 0.6 6.8-2 15.2-5.8s24.2-9.8 35.4-13.2zm603.6-14.8c17.2-17 17.2-17 7.6-17-14.4 0-25.2 10.4-28.4 27.6-0.8 4.2-0.6 6.4 1 6.4 1.2 0 10.2-7.6 19.8-17zm-542.2-3.4c0-1.4-3-8.4-6.6-15.4-8.2-16.6-17.8-24.4-31.2-25.8-9.2-0.8-10.6-0.4-16.2 5.2-3.2 3.4-6 7.2-6 8.4 0 6 26.2 22.8 43.8 28 8.2 2.6 16.2 2.2 16.2-0.4zm350.54-213.01c0-8.688-7.043-15.731-15.731-15.731s-15.731 7.043-15.731 15.731 7.043 15.731 15.731 15.731 15.731-7.043 15.731-15.731z"/>
<path id="Shape" d="m499.72 619.12c0 13.834-11.215 25.049-25.049 25.049-13.834 0-25.049-11.215-25.049-25.049s11.215-25.049 25.049-25.049c13.834 0 25.049 11.215 25.049 25.049zm-18.725 6.4771c6.6-6.4 2.6-14.8-7.2-14.8-8 0-11.8 8.2-6.6 14 4.4 4.8 9.6 5.2 13.8 0.8z"/>
<path id="Path" d="m943.6 343.2c-4.4-4.8-4.2-11 0.2-15 7.8-7.2 16.4-3 16.4 8 0 9.8-10.2 14.2-16.6 7z"/>
<path id="c" d="m975.19 474.21c0 17.007-13.787 30.794-30.794 30.794-17.007 0-30.794-13.787-30.794-30.794 0-17.007 13.787-30.794 30.794-30.794 17.007 0 30.794 13.787 30.794 30.794zm-15.63 0.38144c0-8.4326-6.836-15.269-15.269-15.269s-15.269 6.836-15.269 15.269 6.836 15.269 15.269 15.269 15.269-6.836 15.269-15.269z"/>
<path id="Path" d="m686.69 471.91c0 5.9982-4.8625 10.861-10.861 10.861s-10.861-4.8625-10.861-10.861 4.8625-10.861 10.861-10.861 10.861 4.8625 10.861 10.861z"/>
<path id="b" d="m662 313.88c0 5.8329-4.7285 10.561-10.561 10.561s-10.561-4.7285-10.561-10.561 4.7285-10.561 10.561-10.561 10.561 4.7285 10.561 10.561z"/>
<path d="m588.94 208.64c0 31.961-25.909 57.87-57.87 57.87s-57.87-25.909-57.87-57.87 25.909-57.87 57.87-57.87 57.87 25.909 57.87 57.87zm-32.576-0.71084c0-13.742-11.14-24.882-24.882-24.882-13.742 0-24.882 11.14-24.882 24.882 0 13.742 11.14 24.882 24.882 24.882 13.742 0 24.882-11.14 24.882-24.882z"/>
<path d="m745.6 687.2c21.2-19.6 56.6-18.8 75.6 1.6 6 6.4 6 6.4-10 5-21.2-1.6-38.6-1.6-58 0-16 1.2-16 1.2-7.6-6.6z"/>
</g>
</g>
</g>
</svg>
