<svg xmlns="http://www.w3.org/2000/svg" width="2048px" height="2048px" viewBox="0 0 10240 10240" preserveAspectRatio="xMidYMid meet" xmlns:xlink="http://www.w3.org/1999/xlink"><g id="layer_1">
	<g fill="#f5e9d6"><path d="M 2455 4212 c -269 -125 -577 -268 -684 -317 -106 -49 -195 -95 -198 -103 -3 -7 3 -22 13 -31 10 -10 147 -62 304 -115 157 -54 293 -102 302 -107 10 -5 33 -9 52 -9 33 0 35 2 63 72 15 41 43 88 63 109 48 51 88 57 182 29 41 -12 89 -20 108 -18 34 3 34 3 167 338 149 374 151 380 132 380 -8 0 -234 -103 -504 -228 z "/><path d="M 3035 4389 c -10 -29 -47 -123 -82 -208 -121 -293 -195 -493 -187 -501 5 -5 61 -24 124 -44 568 -176 610 -186 610 -150 0 37 -415 948 -433 952 -10 2 -21 -14 -32 -49 z "/><path d="M 1510 3681 c 0 -6 41 -100 90 -209 50 -108 139 -304 198 -435 107 -238 107 -238 140 -235 37 3 13 -45 231 467 62 147 70 178 49 186 -331 116 -660 228 -680 232 -18 3 -28 1 -28 -6 z "/><path d="M 2427 3668 c -9 -7 -72 -148 -141 -313 -68 -165 -152 -365 -185 -444 -34 -79 -61 -152 -61 -162 0 -35 57 -21 233 60 324 149 542 252 550 260 5 5 3 43 -4 85 -13 74 -12 77 9 98 22 22 22 22 69 -1 27 -12 70 -36 96 -53 36 -23 55 -29 80 -25 18 3 115 44 215 93 134 64 182 92 180 103 -2 11 -68 36 -228 84 -124 38 -342 104 -484 148 -143 43 -271 79 -286 79 -14 0 -34 -6 -43 -12 z "/></g><g fill="#b7c1c6"></g><g fill="#97a0a1"><path d="M 6253 7670 c -18 -11 -33 -25 -33 -31 0 -20 63 -99 79 -99 13 0 43 16 70 36 9 8 -55 114 -69 114 -8 0 -30 -9 -47 -20 z "/><path d="M 5674 7225 c -266 -340 -288 -383 -282 -531 3 -78 8 -101 36 -157 93 -188 318 -265 501 -172 101 51 169 135 195 240 14 55 49 370 63 559 6 79 6 79 -28 71 -19 -4 -61 -11 -94 -14 -59 -6 -59 -6 -111 -131 -29 -69 -53 -131 -53 -139 -1 -7 17 -31 40 -53 56 -55 79 -108 79 -188 0 -83 -23 -133 -85 -188 -129 -113 -308 -81 -395 71 -25 43 -30 63 -30 117 0 81 23 132 80 183 60 55 113 76 190 77 65 1 65 1 115 127 28 70 51 133 53 140 2 7 -13 27 -33 44 -20 18 -45 49 -56 71 -11 22 -27 38 -37 38 -11 0 -66 -62 -148 -165 z "/><path d="M 5225 7008 c -180 -27 -165 -6 -165 -231 0 -111 -3 -212 -6 -225 -5 -17 -32 -36 -98 -69 -367 -183 -591 -459 -697 -860 -17 -65 -38 -124 -47 -130 -12 -10 -95 -13 -334 -13 -318 0 -318 0 -323 -22 -29 -135 -44 -360 -25 -383 10 -12 39 -15 154 -15 294 0 400 -61 561 -321 39 -63 96 -146 128 -186 83 -103 85 -103 231 47 64 66 116 125 116 131 0 7 -24 44 -54 83 -105 138 -153 271 -163 446 -17 328 160 625 462 770 143 69 223 85 405 77 146 -7 146 -7 173 76 15 46 27 86 27 89 0 4 -27 26 -61 49 -143 101 -218 258 -206 432 4 67 12 93 46 163 23 45 41 87 41 93 0 13 -78 13 -165 -1 z "/><path d="M 4845 6919 c -445 -148 -798 -424 -1045 -819 -72 -115 -131 -241 -179 -385 -62 -184 -93 -165 258 -165 300 0 300 0 311 58 17 81 65 213 112 307 130 260 317 450 585 596 113 61 113 61 113 255 0 178 -1 194 -17 194 -10 -1 -72 -19 -138 -41 z "/><path d="M 6246 6868 c -3 -13 -8 -61 -11 -108 -10 -128 -22 -178 -60 -256 -44 -89 -135 -179 -232 -226 -65 -31 -73 -33 -181 -33 -113 0 -113 0 -137 -78 -34 -108 -34 -114 20 -137 25 -11 71 -37 103 -58 62 -43 188 -170 218 -221 32 -55 52 -46 260 115 104 80 198 153 209 163 19 16 20 29 20 409 0 338 -2 394 -15 402 -22 14 -145 50 -169 50 -13 0 -22 -8 -25 -22 z  m 104 -723 c 10 -12 10 -21 2 -40 -14 -31 -56 -34 -72 -5 -24 44 38 83 70 45 z "/><path d="M 6520 6591 c 0 -176 3 -221 14 -230 8 -7 37 -11 67 -9 53 3 53 3 61 41 17 83 105 201 168 227 54 22 38 43 -67 93 -106 49 -221 97 -235 97 -4 0 -8 -98 -8 -219 z "/><path d="M 6520 6176 c 0 -63 -4 -126 -9 -139 -6 -14 -105 -98 -240 -203 -162 -126 -230 -185 -230 -199 -1 -11 10 -54 22 -95 30 -95 46 -100 140 -41 173 110 317 150 466 130 47 -6 94 -12 104 -13 20 -1 357 350 357 372 0 11 -9 12 -42 5 -81 -15 -159 -9 -219 19 -103 47 -175 130 -200 231 -11 47 -11 47 -80 47 -69 0 -69 0 -69 -114 z "/><path d="M 6465 5533 c -95 -26 -415 -219 -415 -250 0 -8 41 -59 92 -114 71 -76 98 -99 118 -99 38 0 112 48 315 205 251 193 256 197 253 213 -6 28 -78 45 -213 48 -71 1 -139 0 -150 -3 z "/><path d="M 6980 5255 c -35 -8 -93 -24 -130 -36 -77 -24 -300 -117 -317 -131 -24 -20 -13 -38 39 -64 61 -31 157 -119 196 -181 17 -27 34 -43 47 -43 55 0 795 249 795 267 0 31 -157 122 -281 164 -114 38 -247 47 -349 24 z "/><path d="M 3530 4935 c 0 -111 36 -290 112 -554 42 -143 42 -143 92 -137 98 12 333 19 389 12 31 -4 67 -16 79 -26 20 -17 21 -20 8 -34 -13 -13 -30 -14 -120 -5 -134 14 -380 -5 -380 -30 0 -3 8 -35 18 -71 19 -65 19 -65 243 -71 164 -5 256 -13 344 -29 66 -12 145 -24 176 -27 56 -5 56 -5 68 58 7 35 22 97 33 138 22 74 22 74 1 90 -158 124 -205 166 -267 240 -40 48 -106 141 -146 207 -152 245 -224 284 -517 284 -133 0 -133 0 -133 -45 z  M3874.4548056921258 4751.7954416337607 C 3874.4548056921258 4689.7925464797777 3824.1915280557937 4639.5292688434456 3762.1886329018108 4639.5292688434456 3700.185737747828 4639.5292688434456 3649.9224601114959 4689.7925464797777 3649.9224601114959 4751.7954416337607 3649.9224601114959 4813.7983367877437 3700.185737747828 4864.0616144240757 3762.1886329018108 4864.0616144240757 3824.1915280557937 4864.0616144240757 3874.4548056921258 4813.7983367877437 3874.4548056921258 4751.7954416337607 Z M3828.0 4844.0 "/><path d="M3819.8142294064509 4752.768182434613 C 3819.8142294064509 4785.2479805340768 3793.4841506997877 4811.57805924074 3761.0043526003241 4811.57805924074 3728.5245545008604 4811.57805924074 3702.1944757941973 4785.2479805340768 3702.1944757941973 4752.768182434613 3702.1944757941973 4720.2883843351497 3728.5245545008604 4693.9583056284864 3761.0043526003241 4693.9583056284864 3793.4841506997877 4693.9583056284864 3819.8142294064509 4720.2883843351497 3819.8142294064509 4752.768182434613 Z M3717.0 4792.0 "/><path d="M6105.1898686642908 4787.821155620074 C 6105.1898686642908 4844.4760787659507 6059.2619789347204 4890.403968495521 6002.607055788844 4890.403968495521 5945.952132642967 4890.403968495521 5900.024242913397 4844.4760787659507 5900.024242913397 4787.821155620074 5900.024242913397 4731.1662324741974 5945.952132642967 4685.238342744627 6002.607055788844 4685.238342744627 6059.2619789347204 4685.238342744627 6105.1898686642908 4731.1662324741974 6105.1898686642908 4787.821155620074 Z M5951.0 4876.0 "/><path d="M 7063 4692 c -162 -13 -203 -19 -203 -30 0 -8 24 -41 54 -73 64 -68 105 -139 137 -231 22 -62 25 -66 59 -72 19 -4 238 -13 485 -21 248 -8 487 -18 533 -21 77 -6 82 -6 82 13 0 28 -71 127 -148 206 -118 121 -235 193 -370 228 -93 24 -324 24 -629 1 z "/><path d="M 4638 4558 c -65 -68 -118 -130 -118 -140 0 -23 100 -95 207 -151 99 -51 347 -137 396 -137 26 0 37 8 57 37 44 66 194 207 283 267 101 69 112 92 40 82 -160 -23 -215 -27 -273 -21 -146 16 -280 66 -387 146 -29 21 -60 39 -70 39 -9 0 -70 -55 -135 -122 z "/><path d="M 7060 4173 c 0 -10 11 -37 24 -60 42 -72 67 -155 79 -253 12 -95 12 -95 117 -147 137 -67 298 -131 782 -308 356 -130 468 -163 468 -138 0 22 -46 164 -70 219 -74 163 -213 325 -349 408 -143 86 -310 138 -771 239 -281 62 -280 62 -280 40 z "/><path d="M6198.9865133624276 4028.4220449694437 C 6198.9865133624276 4077.679363394061 6159.055567146947 4117.610309609541 6109.79824872233 4117.610309609541 6060.5409302977127 4117.610309609541 6020.609984082232 4077.679363394061 6020.609984082232 4028.4220449694437 6020.609984082232 3979.1647265448264 6060.5409302977127 3939.2337803293462 6109.79824872233 3939.2337803293462 6159.055567146947 3939.2337803293462 6198.9865133624276 3979.1647265448264 6198.9865133624276 4028.4220449694437 Z M6074.0 4110.0 "/><path d="M 6440 3998 c 1 -63 1 -63 202 -188 110 -69 220 -143 245 -165 38 -35 45 -47 50 -92 6 -52 6 -52 152 -144 80 -51 218 -138 306 -194 88 -56 195 -123 238 -149 143 -89 149 -101 169 -301 6 -67 17 -127 24 -135 7 -9 77 -56 154 -105 77 -50 198 -127 268 -172 70 -45 137 -83 150 -83 21 0 22 3 22 88 0 162 -46 364 -112 497 -74 147 -202 283 -359 380 -52 32 -195 114 -319 183 -243 135 -427 237 -870 483 -156 88 -292 159 -302 159 -15 0 -18 -9 -18 -62 z "/><path d="M 5710 3948 c -57 -39 -64 -128 -13 -168 34 -27 102 -27 134 -1 24 20 24 20 -2 68 -15 26 -32 65 -39 86 -14 44 -32 47 -80 15 z "/><path d="M 3816 3953 c -48 -4 -48 -4 -42 -36 4 -18 9 -51 13 -75 3 -23 10 -45 16 -49 6 -3 90 -10 186 -14 118 -5 221 -16 313 -33 204 -39 191 -42 212 55 10 45 15 83 12 86 -11 11 -289 52 -421 62 -137 11 -190 11 -289 4 z "/><path d="M 3796 3651 c -10 -101 -10 -101 138 -101 269 -1 435 -81 521 -253 19 -38 35 -76 35 -83 0 -37 43 -102 81 -123 35 -20 56 -23 152 -25 110 -1 110 -1 127 114 10 63 21 136 25 161 7 47 7 47 -137 94 -231 77 -258 96 -258 178 0 34 0 34 -77 50 -159 34 -272 48 -434 54 -166 6 -166 6 -173 -66 z  M4686.764332258297 3224.940506997553 C 4686.764332258297 3202.609046121302 4668.6611063482762 3184.5058202112814 4646.3296454720253 3184.5058202112814 4623.9981845957743 3184.5058202112814 4605.8949586857536 3202.609046121302 4605.8949586857536 3224.940506997553 4605.8949586857536 3247.271967873804 4623.9981845957743 3265.3751937838247 4646.3296454720253 3265.3751937838247 4668.6611063482762 3265.3751937838247 4686.764332258297 3247.271967873804 4686.764332258297 3224.940506997553 Z M4672.0 3253.0 "/><path d="M 3734 3432 c -27 -52 -136 -165 -195 -202 -54 -36 -59 -48 -28 -76 28 -26 66 -102 79 -160 29 -127 -68 -310 -191 -364 -51 -21 -51 -22 -45 -58 9 -61 81 -193 139 -258 67 -73 183 -153 234 -161 21 -3 45 -11 53 -18 29 -24 134 -39 275 -39 124 0 149 3 220 27 101 33 187 85 275 165 155 141 220 295 265 632 6 46 6 46 -97 56 -188 20 -247 63 -313 231 -45 114 -91 170 -171 208 -72 34 -127 42 -320 49 -160 5 -160 5 -180 -32 z  M4321.0330894571543 2699.3630582460003 C 4321.0330894571543 2546.6792015668248 4197.2583679737118 2422.9044800833821 4044.5745112945363 2422.9044800833821 3891.8906546153607 2422.9044800833821 3768.1159331319182 2546.6792015668248 3768.1159331319182 2699.3630582460003 3768.1159331319182 2852.0469149251758 3891.8906546153607 2975.8216364086184 4044.5745112945363 2975.8216364086184 4197.2583679737118 2975.8216364086184 4321.0330894571543 2852.0469149251758 4321.0330894571543 2699.3630582460003 Z M4155.0 2952.0 "/><path d="M 6940 3345 c 0 -62 2 -73 15 -69 12 5 15 -3 15 -36 0 -27 -4 -39 -11 -34 -7 4 -10 0 -7 -9 5 -26 734 -497 768 -497 17 0 20 6 19 43 0 23 -6 78 -12 122 -14 92 25 58 -318 275 -356 226 -444 280 -456 280 -9 0 -13 -21 -13 -75 z "/><path d="M 3409 2920 c -51 -15 -161 -74 -190 -101 -37 -35 -37 -63 1 -101 29 -28 35 -30 90 -26 48 3 67 10 97 34 40 32 103 143 103 182 0 19 -5 22 -37 21 -21 0 -50 -4 -64 -9 z "/></g><g fill="#ac7859"><path d="M 6632 8454 c -142 -71 -242 -278 -216 -449 9 -60 9 -60 49 -60 40 0 40 0 47 77 4 42 14 102 24 135 25 86 88 206 134 254 66 70 51 88 -38 43 z "/><path d="M 6003 8399 c -56 -27 -140 -120 -169 -186 -32 -71 -47 -173 -39 -256 7 -68 7 -68 49 -65 41 3 41 3 48 84 7 87 54 243 90 304 12 19 37 53 55 74 55 65 42 83 -34 45 z "/><path d="M 6853 8250 c -85 -20 -190 -114 -236 -212 -35 -73 -34 -94 3 -113 51 -26 62 -20 99 53 44 85 147 189 224 226 76 36 76 56 0 55 -32 -1 -72 -4 -90 -9 z "/><path d="M 6233 8205 c -126 -39 -241 -162 -260 -280 -5 -31 -3 -36 21 -45 57 -21 69 -15 103 58 38 82 92 145 178 208 36 27 65 54 65 61 0 17 -51 16 -107 -2 z "/><path d="M6659.6921033894937 7735.261363839973 C 6659.6921033894937 7807.781343758402 6600.9030440114 7866.570403136495 6528.3830640929714 7866.570403136495 6455.8630841745426 7866.570403136495 6397.0740247964488 7807.781343758402 6397.0740247964488 7735.261363839973 6397.0740247964488 7662.741383921543 6455.8630841745426 7603.95232454345 6528.3830640929714 7603.95232454345 6600.9030440114 7603.95232454345 6659.6921033894937 7662.741383921543 6659.6921033894937 7735.261363839973 Z M6434.0 7826.0  M6560.963027942039 7736.354709328779 C 6560.963027942039 7709.7038777579255 6539.358260242754 7688.099110058641 6512.707428671901 7688.099110058641 6486.056597101048 7688.099110058641 6464.4518294017632 7709.7038777579255 6464.4518294017632 7736.354709328779 6464.4518294017632 7763.005540899632 6486.056597101048 7784.610308598917 6512.707428671901 7784.610308598917 6539.358260242754 7784.610308598917 6560.963027942039 7763.005540899632 6560.963027942039 7736.354709328779 Z M6554.0 7761.0 "/><path d="M 5841 7793 c -59 -30 -79 -118 -41 -180 26 -43 51 -42 103 3 23 20 62 44 87 54 58 23 62 47 18 96 -29 31 -42 37 -84 41 -33 2 -60 -2 -83 -14 z "/><path d="M6214.4584887972026 7450.7173873617685 C 6214.4584887972026 7532.530734832439 6148.135666482802 7598.85355714684 6066.3223190121314 7598.85355714684 5984.5089715414608 7598.85355714684 5918.1861492270602 7532.530734832439 5918.1861492270602 7450.7173873617685 5918.1861492270602 7368.904039891098 5984.5089715414608 7302.581217576697 6066.3223190121314 7302.581217576697 6148.135666482802 7302.581217576697 6214.4584887972026 7368.904039891098 6214.4584887972026 7450.7173873617685 Z M6004.0 7586.0  M6106.4615959280325 7447.184842570111 C 6106.4615959280325 7424.926008274373 6088.4172454942461 7406.881657840587 6066.1584111985085 7406.881657840587 6043.8995769027708 7406.881657840587 6025.8552264689845 7424.926008274373 6025.8552264689845 7447.184842570111 6025.8552264689845 7469.443676865849 6043.8995769027708 7487.488027299635 6066.1584111985085 7487.488027299635 6088.4172454942461 7487.488027299635 6106.4615959280325 7469.443676865849 6106.4615959280325 7447.184842570111 Z M6094.0 7474.0 "/><path d="M 6667 7572 c -15 -15 -27 -33 -27 -38 0 -18 64 -72 110 -93 53 -24 140 -28 140 -7 0 7 -18 25 -39 39 -21 14 -59 49 -82 76 -24 28 -51 51 -60 51 -8 0 -27 -13 -42 -28 z "/><path d="M 5720 6901 c -14 -4 -26 -13 -27 -21 -2 -8 39 -73 90 -145 83 -115 97 -130 123 -130 37 0 54 32 54 105 0 84 -31 138 -99 173 -54 27 -92 32 -141 18 z "/><path d="M 5591 6803 c -7 -16 -15 -51 -18 -80 -7 -64 22 -131 75 -171 31 -24 44 -27 111 -27 73 0 76 1 76 23 0 14 -39 77 -95 152 -102 139 -125 155 -149 103 z "/><path d="M7248.128990248796 6324.738525996265 C 7248.128990248796 6464.130956525672 7135.1290985711144 6577.130848203354 6995.736668041707 6577.130848203354 6856.3442375123 6577.130848203354 6743.3443458346183 6464.130956525672 6743.3443458346183 6324.738525996265 6743.3443458346183 6185.346095466857 6856.3442375123 6072.346203789176 6995.736668041707 6072.346203789176 7135.1290985711144 6072.346203789176 7248.128990248796 6185.346095466857 7248.128990248796 6324.738525996265 Z M6909.0 6565.0  M7165.2909194884096 6319.247743738134 C 7165.2909194884096 6239.167408482149 7100.3729811536614 6174.249470147401 7020.2926458976767 6174.249470147401 6940.212310641692 6174.249470147401 6875.294372306944 6239.167408482149 6875.294372306944 6319.247743738134 6875.294372306944 6399.328078994119 6940.212310641692 6464.246017328867 7020.2926458976767 6464.246017328867 7100.3729811536614 6464.246017328867 7165.2909194884096 6399.328078994119 7165.2909194884096 6319.247743738134 Z M7102.0 6434.0 "/></g>
</g>
<g id="layer_2">
	<g fill="#ac7859"><path d="M 5246 5802 c -2 -4 -7 -24 -11 -44 -8 -43 -10 -44 -93 -83 -62 -29 -62 -29 -101 -7 -50 28 -62 28 -94 -6 -32 -33 -34 -63 -8 -106 20 -31 20 -31 -8 -94 -34 -76 -41 -84 -89 -97 -37 -10 -37 -11 -40 -68 -3 -52 -1 -57 18 -57 48 0 76 -27 105 -101 27 -70 28 -74 12 -102 -24 -40 -21 -67 10 -99 32 -34 54 -35 93 -7 29 22 29 22 94 -6 57 -24 80 -28 168 -29 96 -1 108 1 170 31 84 40 151 107 192 193 29 61 31 72 31 175 -1 88 -5 122 -23 170 -23 60 -23 60 -1 108 23 47 23 47 -11 82 -39 41 -51 42 -96 14 -34 -20 -34 -20 -96 7 -73 31 -98 55 -98 94 0 20 -6 29 -22 34 -32 8 -96 7 -102 -2 z  M5567.6267564624115 5301.619730834718 C 5567.6267564624115 5154.3271669928554 5448.2225413565766 5034.9229518870206 5300.929977514714 5034.9229518870206 5153.6374136728514 5034.9229518870206 5034.2331985670164 5154.3271669928554 5034.2331985670164 5301.619730834718 5034.2331985670164 5448.912294676581 5153.6374136728514 5568.316509782416 5300.929977514714 5568.316509782416 5448.2225413565766 5568.316509782416 5567.6267564624115 5448.912294676581 5567.6267564624115 5301.619730834718 Z M5418.0 5544.0 "/><path d="M 5241 5501 c -13 -3 -29 -14 -34 -23 -13 -19 -1 -36 127 -169 78 -81 101 -99 125 -99 34 0 41 17 41 99 0 65 -27 128 -68 158 -50 37 -130 51 -191 34 z "/><path d="M 5119 5404 c -15 -18 -25 -138 -15 -179 9 -35 65 -95 103 -111 38 -16 146 -18 174 -4 10 6 19 18 19 28 0 18 -233 275 -254 280 -7 2 -19 -5 -27 -14 z "/><path d="M 5757 5388 c 16 -88 8 -189 -20 -259 -15 -36 -27 -71 -27 -77 0 -6 35 -39 77 -73 83 -65 82 -64 168 -38 52 16 106 5 145 -28 43 -36 60 -74 60 -132 0 -44 -5 -56 -35 -90 -28 -30 -35 -47 -35 -77 1 -29 19 -167 30 -221 0 -2 5 -3 12 -3 6 0 19 -6 27 -13 18 -16 88 -37 120 -37 21 0 22 2 16 103 -2 56 -7 176 -10 266 -5 130 -10 173 -24 205 -22 49 -463 509 -492 514 -18 3 -19 -1 -12 -40 z "/><path d="M 5609 4944 c -40 -41 -155 -100 -217 -110 -32 -5 -42 -11 -40 -23 2 -9 71 -70 153 -136 208 -166 297 -255 322 -325 17 -46 25 -56 48 -58 15 -2 34 3 44 12 9 8 42 27 74 41 65 30 63 25 46 156 -16 118 -20 125 -68 132 -85 11 -131 73 -131 175 0 59 0 59 -74 116 -43 33 -83 56 -98 56 -15 0 -38 -14 -59 -36 z "/><path d="M 7545 4915 c -5 -2 -36 -11 -67 -20 -46 -12 -58 -20 -58 -35 0 -11 -4 -20 -10 -20 -5 0 -10 5 -10 10 0 13 -50 13 -106 -1 -33 -9 -44 -16 -42 -28 3 -14 26 -16 193 -17 147 0 203 -4 248 -17 32 -9 69 -17 82 -17 56 0 15 99 -56 135 -25 13 -145 20 -174 10 z "/><path d="M 7887 4783 c 3 -37 10 -74 16 -80 5 -7 25 -13 45 -13 34 0 35 0 29 37 -7 44 -55 116 -80 121 -14 3 -16 -5 -10 -65 z "/><path d="M 5561 4399 c -88 -55 -141 -98 -141 -116 0 -8 10 -28 21 -45 36 -50 50 -117 58 -289 11 -223 5 -214 251 -449 344 -330 445 -420 472 -420 22 0 25 6 41 88 32 173 33 188 4 230 -33 47 -340 352 -354 352 -6 0 -31 -11 -54 -25 -99 -56 -212 -12 -249 99 -13 40 -1 98 29 133 25 30 90 73 111 73 33 0 39 90 15 223 -14 80 -28 111 -73 160 -34 36 -54 34 -131 -14 z  m 600 -1029 c 23 -13 25 -53 3 -71 -17 -14 -40 -5 -58 24 -8 12 -5 21 8 36 22 24 21 24 47 11 z "/><path d="M6359.7659415574153 4026.968660273272 C 6359.7659415574153 4165.604396186832 6247.3794720670003 4277.990865677247 6108.74373615344 4277.990865677247 5970.1080002398799 4277.990865677247 5857.7215307494648 4165.604396186832 5857.7215307494648 4026.968660273272 5857.7215307494648 3888.3329243597113 5970.1080002398799 3775.9464548692968 6108.74373615344 3775.9464548692968 6247.3794720670003 3775.9464548692968 6359.7659415574153 3888.3329243597113 6359.7659415574153 4026.968660273272 Z M6026.0 4266.0  M6252.9017309961732 4027.1109992690226 C 6252.9017309961732 3948.938475225136 6189.5303792263467 3885.5671234553097 6111.35785518246 3885.5671234553097 6033.1853311385735 3885.5671234553097 5969.813979368747 3948.938475225136 5969.813979368747 4027.1109992690226 5969.813979368747 4105.2835233129094 6033.1853311385735 4168.6548750827355 6111.35785518246 4168.6548750827355 6189.5303792263467 4168.6548750827355 6252.9017309961732 4105.2835233129094 6252.9017309961732 4027.1109992690226 Z M6184.0 4151.0 "/><path d="M 4659 4163 c -5 -15 -19 -69 -30 -120 -25 -110 -22 -116 56 -139 29 -8 100 -33 156 -54 57 -22 113 -40 124 -40 16 0 31 25 74 115 30 64 52 117 50 119 -2 2 -57 20 -121 40 -65 20 -154 52 -199 71 -44 19 -85 35 -90 35 -5 0 -14 -12 -20 -27 z  M4809.89745541462855 4015.690709941382 C 4809.89745541462855 3992.7731765016506 4791.31912381962144 3974.194844906643 4768.4015903798898 3974.194844906643 4745.48405694015815 3974.194844906643 4726.90572534515104 3992.7731765016506 4726.90572534515104 4015.690709941382 4726.90572534515104 4038.6082433811134 4745.48405694015815 4057.186574976121 4768.4015903798898 4057.186574976121 4791.31912381962144 4057.186574976121 4809.89745541462855 4038.6082433811134 4809.89745541462855 4015.690709941382 Z M4791.0 4050.0 "/><path d="M 4576 3793 c -36 -163 -41 -203 -24 -219 20 -20 284 -114 320 -114 24 0 27 5 38 58 6 31 21 94 32 140 11 46 18 85 16 88 -10 10 -324 114 -345 114 -18 0 -24 -10 -37 -67 z "/><path d="M 6348 3796 c -33 -38 -64 -61 -103 -77 -37 -15 -55 -28 -53 -38 2 -9 62 -53 133 -99 411 -263 475 -302 499 -302 26 0 26 0 26 138 0 159 -1 162 -88 221 -132 89 -334 211 -350 211 -9 0 -38 -24 -64 -54 z  m 372 -261 c 25 -30 -19 -83 -59 -70 -27 8 -34 34 -16 61 17 27 56 32 75 9 z "/><path d="M 5421 3659 c -18 -52 -13 -158 9 -208 30 -66 76 -117 126 -141 37 -18 58 -21 119 -18 89 4 116 21 97 63 -15 32 -68 65 -105 65 -36 0 -83 25 -97 50 -6 11 -8 36 -4 55 6 32 2 40 -45 91 -28 30 -51 60 -51 65 0 5 -9 9 -19 9 -12 0 -23 -11 -30 -31 z "/><path d="M 6095 2978 c 10 -57 28 -90 65 -122 26 -22 41 -26 91 -26 32 0 59 4 59 9 0 4 -39 47 -87 94 -60 59 -96 87 -111 87 -22 0 -23 -3 -17 -42 z "/><path d="M5265.9487786742555 1842.8692677637302 C 5265.9487786742555 1893.48855695908216 5224.9137369998133 1934.52359863352433 5174.2944478044614 1934.52359863352433 5123.6751586091094 1934.52359863352433 5082.6401169346672 1893.48855695908216 5082.6401169346672 1842.8692677637302 5082.6401169346672 1792.24997856837822 5123.6751586091094 1751.21493689393603 5174.2944478044614 1751.21493689393603 5224.9137369998133 1751.21493689393603 5265.9487786742555 1792.24997856837822 5265.9487786742555 1842.8692677637302 Z M5112.0 1910.0 "/></g><g fill="#727779"><path d="M 5663 7550 c -18 -16 -33 -37 -33 -45 0 -28 42 -75 68 -75 34 0 82 37 82 64 0 22 -57 86 -75 86 -6 0 -25 -14 -42 -30 z "/><path d="M 5393 7440 c -58 -26 -121 -70 -217 -153 -137 -117 -216 -197 -216 -217 0 -25 17 -25 107 -4 95 22 265 44 345 44 67 0 67 0 142 96 85 107 91 128 51 187 -47 68 -127 86 -212 47 z "/><path d="M 7930 7283 c -121 -21 -246 -89 -346 -188 -94 -94 -377 -447 -382 -477 -5 -29 54 -88 87 -88 27 1 70 35 431 344 102 87 247 208 323 269 88 70 137 116 135 126 -3 13 -22 16 -113 17 -61 1 -121 0 -135 -3 z "/><path d="M 8350 7190 c -41 -11 -103 -33 -137 -50 -111 -51 -120 -59 -611 -474 -273 -230 -284 -241 -278 -269 3 -16 6 -63 6 -103 0 -68 2 -74 20 -74 20 0 306 189 1073 708 221 150 317 220 315 231 -5 26 -77 43 -198 47 -92 3 -130 0 -190 -16 z "/><path d="M 5120 6002 c -227 -64 -410 -233 -485 -449 -134 -383 46 -792 409 -928 125 -47 396 -59 396 -17 0 9 -26 36 -57 60 -50 37 -62 42 -110 42 -70 0 -90 11 -104 61 -13 43 -50 79 -80 79 -10 0 -33 -9 -51 -20 -54 -33 -73 -27 -149 49 -74 74 -85 104 -53 150 11 15 15 34 11 58 -8 46 -20 60 -62 67 -58 11 -75 44 -75 146 0 86 1 89 31 114 17 14 36 26 43 26 8 0 25 9 40 21 32 25 34 65 6 111 -11 18 -20 41 -20 51 0 22 103 133 142 153 36 19 54 18 105 -7 39 -19 46 -19 65 -7 12 8 29 37 37 64 20 61 43 74 141 74 94 0 120 -13 141 -69 17 -48 50 -81 80 -81 10 0 34 9 54 21 50 30 72 21 149 -61 60 -64 66 -74 66 -113 0 -38 8 -50 81 -134 62 -72 87 -93 106 -93 26 0 26 1 20 63 -11 116 -80 262 -172 365 -64 71 -195 156 -290 188 -107 37 -313 44 -415 16 z "/><path d="M 6334 4995 c -4 -8 2 -34 11 -58 10 -23 21 -82 24 -132 6 -90 6 -90 51 -89 25 0 105 11 178 24 154 27 158 31 94 114 -44 58 -111 107 -187 135 -67 25 -163 28 -171 6 z "/><path d="M 6505 4630 c -66 -10 -121 -19 -122 -19 -2 -1 -3 -36 -3 -80 0 -51 4 -82 13 -88 15 -12 543 -133 581 -133 35 0 33 15 -9 103 -39 83 -93 149 -164 201 -44 33 -54 36 -112 35 -35 -1 -118 -9 -184 -19 z "/><path d="M 6390 4283 c 0 -32 4 -63 8 -68 13 -20 66 -52 252 -155 102 -57 235 -131 297 -166 62 -35 121 -64 133 -64 25 0 25 18 5 115 -31 144 -116 263 -208 290 -85 24 -440 105 -464 105 -21 0 -23 -4 -23 -57 z "/><path d="M 6377 3358 c 5 -83 5 -83 57 -136 28 -30 156 -153 283 -274 167 -159 235 -230 242 -252 9 -34 8 -53 -16 -200 -15 -98 -15 -98 18 -131 383 -367 429 -404 443 -357 34 115 41 382 13 495 -53 216 -158 373 -326 491 -42 29 -143 96 -226 148 -82 52 -223 140 -311 196 -89 56 -166 102 -172 102 -8 0 -10 -26 -5 -82 z "/><path d="M 6330 3088 c -23 -112 -23 -112 22 -153 26 -23 141 -131 258 -241 230 -216 261 -236 274 -173 3 18 9 63 13 101 6 68 6 68 -48 121 -227 220 -479 457 -486 457 -6 0 -20 -50 -33 -112 z "/></g><g fill="#33b743"><path d="M4183.4430997746249 2695.23162989697278 C 4183.4430997746249 2770.81191004939444 4122.17317688314694 2832.0818329408724 4046.59289673072527 2832.0818329408724 3971.0126165783036 2832.0818329408724 3909.74269368682565 2770.81191004939444 3909.74269368682565 2695.23162989697278 3909.74269368682565 2619.6513497445511 3971.0126165783036 2558.38142685307315 4046.59289673072527 2558.38142685307315 4122.17317688314694 2558.38142685307315 4183.4430997746249 2619.6513497445511 4183.4430997746249 2695.23162989697278 Z M3973.0 2810.0 "/></g><g fill="#575a5b"><path d="M 3290 3154 c -119 -39 -128 -56 -42 -80 31 -8 87 -24 123 -35 116 -33 147 -20 96 43 -53 65 -117 91 -177 72 z "/><path d="M 2930 3095 c 0 -33 45 -102 105 -162 74 -74 102 -80 165 -34 21 15 53 34 70 41 52 21 36 37 -69 70 -55 17 -134 46 -176 65 -86 39 -95 41 -95 20 z "/></g><g fill="#5e402e"><path d="M6574.36077967328066 7738.5812625027797 C 6574.36077967328066 7772.5302892862023 6546.83965578929656 7800.0514131701866 6512.89062900587396 7800.0514131701866 6478.94160222245137 7800.0514131701866 6451.42047833846726 7772.5302892862023 6451.42047833846726 7738.5812625027797 6451.42047833846726 7704.632235719357 6478.94160222245137 7677.111111835373 6512.89062900587396 7677.111111835373 6546.83965578929656 7677.111111835373 6574.36077967328066 7704.632235719357 6574.36077967328066 7738.5812625027797 Z M6462.0 7778.0 "/><path d="M7180.0889237487854 6319.2539509184894 C 7180.0889237487854 6406.652044873228 7109.2387698902673 6477.5021987317461 7021.8406759355288 6477.5021987317461 6934.4425819807902 6477.5021987317461 6863.5924281222722 6406.652044873228 6863.5924281222722 6319.2539509184894 6863.5924281222722 6231.8558569637507 6934.4425819807902 6161.0057031052327 7021.8406759355288 6161.0057031052327 7109.2387698902673 6161.0057031052327 7180.0889237487854 6231.8558569637507 7180.0889237487854 6319.2539509184894 Z M6953.0 6459.0 "/></g><g fill="#3b2619"><path d="M6737.3517092353827 3505.76654476022907 C 6737.3517092353827 3537.02740137558183 6712.00977784161762 3562.36933276934693 6680.74892122626486 3562.36933276934693 6649.4880646109121 3562.36933276934693 6624.146133217147 3537.02740137558183 6624.146133217147 3505.76654476022907 6624.146133217147 3474.50568814487629 6649.4880646109121 3449.16375675111121 6680.74892122626486 3449.16375675111121 6712.00977784161762 3449.16375675111121 6737.3517092353827 3474.50568814487629 6737.3517092353827 3505.76654476022907 Z M6635.0 3536.0 "/></g><g fill="#000000"></g>
</g>
<g id="layer_3">
	<g fill="#000000"><path d="M 6658 8571 c -108 -35 -203 -112 -263 -214 -20 -36 -32 -46 -45 -42 -32 10 -154 -15 -212 -44 -32 -15 -58 -23 -58 -17 0 18 104 111 163 145 79 45 90 96 26 128 -29 15 -83 16 -169 2 -183 -29 -329 -162 -386 -354 -22 -73 -25 -260 -6 -317 11 -31 11 -41 -3 -67 -8 -17 -19 -47 -23 -68 -6 -31 -22 -50 -81 -99 -71 -59 -75 -61 -132 -62 -130 -2 -290 -116 -614 -436 -126 -125 -148 -142 -219 -173 -318 -141 -610 -368 -807 -628 -85 -113 -133 -190 -204 -330 -125 -246 -188 -484 -210 -802 -5 -83 -5 -83 53 -83 59 0 59 0 66 98 6 88 18 179 31 240 5 22 5 22 323 22 239 0 322 3 334 13 9 6 30 65 47 130 106 401 330 677 697 860 66 33 93 52 98 69 3 13 6 114 6 225 0 201 0 201 48 211 66 15 251 37 256 31 2 -2 -14 -41 -36 -86 -36 -72 -41 -92 -46 -171 -10 -185 62 -339 206 -440 60 -42 60 -42 34 -121 -26 -79 -26 -79 -172 -74 -182 7 -263 -8 -405 -77 -305 -147 -477 -438 -462 -780 3 -63 8 -123 12 -132 6 -14 19 -18 62 -18 56 0 56 0 49 33 -35 172 -2 376 86 525 42 73 177 208 250 250 31 18 89 45 130 60 66 24 87 26 218 26 133 1 152 -2 225 -27 95 -33 226 -118 290 -189 88 -98 158 -242 171 -353 10 -79 -8 -73 -105 38 -74 84 -81 96 -81 135 0 40 -5 49 -73 118 -82 83 -102 89 -168 52 -39 -22 -39 -22 -65 -2 -15 10 -34 39 -43 64 -21 58 -46 70 -151 70 -108 0 -131 -11 -150 -74 -22 -67 -40 -79 -87 -55 -74 38 -118 23 -205 -69 -65 -68 -72 -95 -38 -150 11 -18 20 -41 20 -52 0 -20 -44 -60 -66 -60 -7 0 -26 -12 -43 -26 -31 -26 -31 -27 -31 -124 0 -111 15 -143 73 -155 17 -4 39 -14 48 -22 11 -9 34 -13 72 -11 55 3 55 3 34 56 -23 55 -53 81 -95 82 -21 0 -23 4 -20 47 3 45 5 48 40 58 47 13 58 25 93 105 28 64 28 64 7 102 -29 48 -28 59 7 92 30 29 30 29 66 7 47 -28 67 -26 145 12 60 30 65 35 75 77 12 49 24 56 81 45 29 -5 34 -10 34 -34 0 -39 24 -63 96 -94 74 -32 78 -33 121 -6 34 22 34 22 68 -11 34 -32 34 -32 12 -76 -21 -44 -21 -44 2 -111 40 -120 39 -236 -5 -340 -4 -10 8 -13 44 -13 49 0 49 0 62 43 18 61 23 144 12 210 -5 31 -7 57 -4 57 2 0 72 -70 156 -156 151 -156 151 -156 220 -152 69 3 69 3 -7 84 -43 45 -77 84 -77 87 0 11 281 188 340 213 85 36 241 45 341 20 35 -9 67 -20 72 -25 7 -7 -141 -127 -380 -307 -92 -69 -92 -69 39 -72 131 -3 131 -3 252 46 188 76 273 96 396 96 92 0 117 -4 199 -32 51 -18 124 -50 161 -72 67 -39 71 -40 162 -40 93 1 93 1 58 32 -102 89 -263 173 -399 207 -136 34 -339 25 -455 -19 -16 -6 -30 -9 -32 -8 -1 2 35 34 82 71 47 38 90 79 96 93 15 33 -2 68 -41 85 -17 8 -31 17 -31 21 0 4 59 70 132 145 72 76 174 186 225 245 52 59 125 129 162 157 37 27 286 195 552 374 712 478 872 589 888 619 19 33 7 73 -29 100 -73 54 -287 95 -422 80 -77 -8 -77 -8 -98 20 -57 77 -338 87 -530 19 -176 -62 -266 -141 -522 -458 -99 -123 -183 -223 -187 -223 -4 0 -56 25 -115 55 -148 76 -409 185 -566 237 -132 43 -132 43 -126 102 3 32 10 111 16 175 16 186 13 177 82 222 91 58 123 55 203 -20 93 -86 158 -115 270 -119 72 -3 102 0 149 17 68 24 106 55 106 86 0 35 -21 51 -95 74 -85 25 -151 72 -193 137 -41 61 -55 115 -49 184 6 74 39 141 103 209 68 74 133 108 246 131 97 19 123 37 112 74 -11 35 -43 63 -106 91 -112 50 -287 43 -387 -16 -18 -11 -35 -18 -38 -15 -12 11 110 116 174 149 42 22 74 46 78 58 10 30 -19 67 -62 78 -58 16 -171 12 -235 -8 z  m 2 -150 c -46 -48 -109 -168 -134 -254 -10 -33 -20 -93 -24 -135 -7 -77 -7 -77 -37 -77 -28 0 -30 3 -39 55 -25 159 77 365 216 434 28 14 53 24 55 23 2 -2 -15 -23 -37 -46 z  m -624 -43 c -84 -103 -143 -252 -154 -392 -7 -81 -7 -81 -38 -84 -31 -3 -31 -3 -38 56 -15 130 27 260 112 353 42 45 118 99 141 99 2 0 -8 -15 -23 -32 z  m 954 -133 c 0 -2 -25 -16 -57 -31 -77 -37 -180 -141 -224 -226 -19 -38 -38 -68 -42 -68 -16 0 -67 31 -67 41 0 6 12 36 27 67 46 98 151 192 236 212 36 9 127 12 127 5 z  m -665 -43 c -6 -5 -38 -30 -72 -55 -81 -62 -128 -118 -166 -199 -33 -71 -38 -75 -82 -58 -23 9 -26 14 -20 38 29 118 137 230 258 267 48 16 96 19 82 7 z  m -5 -187 c 0 -19 5 -56 11 -84 16 -76 -9 -117 -103 -169 -40 -22 -77 -38 -82 -35 -11 7 0 87 17 121 8 15 24 47 35 72 27 55 100 142 113 134 5 -3 9 -20 9 -39 z  M6646.770868610427 7735.118237548272 C 6646.770868610427 7669.6537022903285 6593.70137721278 7616.584210892682 6528.236841954837 7616.584210892682 6462.772306696893 7616.584210892682 6409.702815299246 7669.6537022903285 6409.702815299246 7735.118237548272 6409.702815299246 7800.582772806216 6462.772306696893 7853.652264203863 6528.236841954837 7853.652264203863 6593.70137721278 7853.652264203863 6646.770868610427 7800.582772806216 6646.770868610427 7735.118237548272 Z M6603.0 7829.0  m -605 -74 c 18 -20 32 -41 30 -47 -2 -6 -24 -19 -48 -28 -25 -10 -64 -34 -87 -54 -23 -20 -46 -36 -52 -36 -16 0 -51 61 -51 88 0 111 132 160 208 77 z  m 333 -124 c 26 -49 26 -49 -2 -65 -15 -9 -29 -16 -31 -16 -3 0 -19 20 -37 45 -32 45 -32 45 1 65 18 11 35 20 38 20 3 0 17 -22 31 -49 z  M6201.314070860317 7450.954368119849 C 6201.314070860317 7376.101798228244 6140.634073693878 7315.421801061805 6065.781503802273 7315.421801061805 5990.928933910667 7315.421801061805 5930.248936744229 7376.101798228244 5930.248936744229 7450.954368119849 5930.248936744229 7525.806938011455 5990.928933910667 7586.486935177893 6065.781503802273 7586.486935177893 6140.634073693878 7586.486935177893 6201.314070860317 7525.806938011455 6201.314070860317 7450.954368119849 Z M6129.0 7572.0  m 644 -45 c 34 -35 73 -71 87 -80 25 -16 25 -16 -15 -16 -50 -1 -120 30 -162 72 -33 31 -33 31 -6 59 15 15 28 28 30 28 2 0 32 -28 66 -63 z  m -1003 -33 c 0 -15 -52 -54 -72 -54 -13 0 -58 51 -58 65 0 3 15 18 33 34 32 30 32 30 65 -2 17 -17 32 -36 32 -43 z  m -230 -59 c 33 -17 80 -80 80 -107 0 -9 -34 -60 -76 -112 -75 -96 -75 -96 -142 -96 -80 0 -249 -22 -350 -45 -40 -9 -76 -15 -79 -12 -9 10 20 41 118 131 253 228 361 286 449 241 z  m 309 -93 c 11 -22 35 -53 55 -69 34 -31 34 -31 -17 -162 -52 -130 -52 -130 -117 -131 -77 -1 -130 -22 -190 -77 -60 -53 -80 -101 -80 -193 0 -65 4 -82 30 -127 88 -154 283 -187 415 -71 64 57 85 104 85 198 0 91 -21 141 -79 198 -41 40 -41 40 12 168 53 129 53 129 118 135 35 4 73 10 83 14 18 8 19 5 13 -61 -22 -249 -50 -498 -63 -549 -44 -179 -219 -300 -396 -275 -119 17 -225 95 -280 207 -26 53 -32 80 -36 146 -7 137 20 186 282 522 72 91 133 165 138 165 4 0 16 -17 27 -38 z  m 2315 -71 c 3 -4 -56 -58 -132 -119 -75 -60 -220 -181 -322 -268 -324 -278 -405 -343 -421 -344 -18 0 -83 64 -78 78 10 28 313 397 383 467 100 99 226 168 346 188 49 8 219 7 224 -2 z  m 489 -85 c 33 -8 63 -18 68 -23 6 -6 -108 -89 -308 -225 -659 -446 -1052 -708 -1063 -708 -6 0 -10 31 -10 79 0 44 -2 86 -6 94 -3 9 87 92 278 253 491 415 500 423 611 474 137 65 303 86 430 56 z  m -3663 -420 c 0 -184 0 -184 -113 -245 -268 -146 -455 -336 -585 -596 -47 -94 -95 -226 -112 -307 -11 -58 -11 -58 -302 -58 -333 0 -305 -19 -241 165 193 559 638 992 1218 1184 66 22 123 40 128 41 4 0 7 -83 7 -184 z  m 861 107 c 42 -22 59 -38 77 -73 37 -74 24 -185 -22 -185 -21 0 -211 255 -198 266 8 8 39 16 68 18 11 0 45 -11 75 -26 z  m 497 -13 c 37 -11 74 -25 82 -30 13 -8 15 -62 13 -396 -1 -374 -2 -386 -21 -400 -11 -8 -105 -79 -208 -159 -102 -80 -194 -145 -203 -145 -9 0 -25 14 -35 31 -30 51 -156 178 -218 221 -32 21 -78 47 -103 58 -25 11 -45 24 -45 29 0 6 11 45 25 88 24 78 24 78 137 78 108 0 116 2 181 33 97 47 188 137 232 226 38 78 50 128 60 256 8 106 13 130 26 130 6 0 41 -9 77 -20 z  m -618 -170 c 52 -71 95 -135 95 -142 0 -9 -18 -13 -66 -13 -56 0 -71 4 -101 27 -51 39 -82 107 -75 162 7 52 26 96 41 96 6 -1 54 -59 106 -130 z  m 1023 13 c 53 -25 97 -49 97 -53 0 -4 -13 -13 -30 -20 -63 -26 -151 -144 -168 -227 -7 -36 -10 -38 -51 -41 -71 -5 -71 -6 -71 229 0 208 0 208 63 182 34 -13 106 -45 160 -70 z  M7235.496004512301 6325.151450795253 C 7235.496004512301 6192.807288875034 7128.209863476089 6085.521147838822 6995.865701555869 6085.521147838822 6863.52153963565 6085.521147838822 6756.235398599438 6192.807288875034 6756.235398599438 6325.151450795253 6756.235398599438 6457.495612715473 6863.52153963565 6564.781753751685 6995.865701555869 6564.781753751685 7128.209863476089 6564.781753751685 7235.496004512301 6457.495612715473 7235.496004512301 6325.151450795253 Z M7098.0 6546.0  m -439 -313 c 44 -175 237 -294 411 -254 24 5 46 9 47 7 5 -5 -337 -361 -346 -359 -4 1 -48 7 -96 13 -158 20 -291 -15 -466 -121 -45 -28 -89 -49 -97 -47 -10 2 -25 33 -40 86 -14 45 -23 84 -21 86 2 2 107 83 232 181 133 103 232 188 238 202 5 13 9 76 9 139 0 114 0 114 59 114 59 0 59 0 70 -47 z "/><path d="M6119.0315216559775 7446.6866329682825 C 6119.0315216559775 7475.952510732049 6095.306840160736 7499.67719222729 6066.04096239697 7499.67719222729 6036.775084633204 7499.67719222729 6013.050403137962 7475.952510732049 6013.050403137962 7446.6866329682825 6013.050403137962 7417.420755204516 6036.775084633204 7393.696073709275 6066.04096239697 7393.696073709275 6095.306840160736 7393.696073709275 6119.0315216559775 7417.420755204516 6119.0315216559775 7446.6866329682825 Z M6025.0 7480.0 "/><path d="M 6268 6146 c -8 -20 -8 -32 0 -52 10 -21 18 -25 49 -22 31 2 39 8 47 31 14 39 -2 61 -47 65 -31 3 -39 -1 -49 -22 z "/><path d="M 5185 5556 c -55 -25 -119 -90 -140 -140 -35 -84 -26 -198 21 -268 24 -38 24 -38 102 -38 72 1 75 2 47 14 -37 16 -92 77 -101 112 -10 37 0 140 15 158 12 14 23 5 95 -72 179 -191 173 -182 151 -198 -17 -12 -10 -14 57 -14 59 0 78 4 91 18 53 58 69 208 31 292 -49 107 -132 160 -248 160 -53 0 -84 -6 -121 -24 z  m 169 -67 c 55 -15 93 -46 116 -94 20 -41 26 -108 14 -153 -12 -43 -46 -21 -162 102 -88 92 -110 121 -102 131 20 24 77 30 134 14 z "/></g>
</g>
<g id="layer_4">
	<g fill="#000000"><path d="M 3410 5101 c 0 -76 23 -296 41 -390 22 -117 67 -288 135 -516 119 -394 131 -533 62 -694 -19 -45 -19 -45 -57 49 -87 213 -424 947 -447 971 -32 33 -93 52 -142 43 -53 -10 -193 -72 -812 -361 -129 -61 -329 -154 -445 -207 -270 -124 -304 -144 -333 -186 -43 -62 -30 -111 96 -386 60 -131 154 -336 207 -454 54 -118 110 -240 126 -271 31 -61 70 -93 130 -104 65 -12 98 1 593 234 153 73 287 133 296 134 9 1 33 -17 53 -41 19 -23 65 -67 101 -98 46 -39 70 -68 82 -100 18 -48 79 -110 117 -119 19 -5 27 -19 41 -68 77 -275 323 -490 621 -542 275 -48 523 22 738 207 57 50 57 50 220 -108 162 -159 162 -159 162 -245 0 -78 2 -89 28 -122 39 -52 81 -71 152 -71 73 0 115 20 154 75 54 73 49 166 -11 235 -53 61 -114 79 -201 61 -38 -8 -38 -8 -204 156 -167 164 -167 164 -136 213 74 121 99 217 149 568 65 461 114 695 177 849 56 137 207 377 237 377 5 0 17 -12 26 -26 13 -19 19 -62 25 -172 8 -146 8 -146 -21 -191 -100 -150 -98 -340 4 -474 42 -56 118 -112 186 -138 58 -23 174 -31 240 -16 35 7 36 6 106 -82 59 -73 72 -97 78 -136 14 -104 102 -205 211 -242 56 -19 164 -21 208 -4 33 13 -9 50 492 -424 475 -449 482 -455 520 -455 41 0 61 22 79 92 69 266 58 566 -28 770 -9 21 -14 38 -10 38 12 0 803 -500 911 -576 65 -46 96 -53 129 -30 17 13 19 30 22 190 4 191 -8 280 -54 430 -61 194 -204 396 -361 509 -24 17 -41 32 -39 35 3 2 117 -37 254 -87 246 -90 297 -102 320 -79 18 18 15 82 -8 178 -55 231 -150 400 -317 561 -126 122 -243 188 -453 254 -115 36 -115 36 40 30 85 -3 214 -8 285 -11 115 -6 133 -5 148 10 50 51 -19 192 -180 372 -65 72 -65 72 -67 166 -1 75 -6 101 -24 136 -50 95 -131 159 -232 185 -44 12 -55 19 -61 40 -4 14 -17 40 -29 57 -21 30 -21 30 -122 30 -101 0 -101 0 -58 -31 44 -32 44 -32 -186 -111 -232 -80 -539 -178 -558 -178 -6 0 -23 20 -38 43 -39 62 -135 150 -196 181 -29 15 -50 31 -46 37 3 6 29 21 57 34 52 23 52 23 -89 24 -134 1 -145 0 -185 -24 -55 -31 -67 -31 -100 0 -23 23 -33 26 -92 23 -66 -3 -66 -3 27 -104 53 -57 99 -117 105 -136 10 -32 33 -527 25 -537 -6 -7 -99 22 -115 36 -8 7 -21 13 -27 13 -7 0 -12 1 -12 3 -9 45 -29 190 -30 211 0 19 12 42 35 67 32 36 35 44 35 103 0 69 -20 111 -72 149 -37 28 -122 34 -172 13 -21 -9 -42 -16 -46 -16 -11 0 -160 119 -160 128 1 4 7 18 15 32 21 37 19 40 -34 40 -44 0 -50 -3 -61 -29 -21 -53 -105 -130 -177 -164 -63 -30 -75 -32 -163 -30 -78 1 -105 6 -154 27 -70 31 -86 32 -119 6 -32 -26 -35 -25 -69 7 -31 30 -34 49 -13 77 17 23 19 59 5 87 -9 15 -22 19 -70 19 -59 0 -59 0 -48 -30 8 -24 6 -38 -10 -70 -28 -58 -19 -85 59 -162 76 -77 102 -84 170 -46 39 22 39 22 66 2 14 -11 32 -38 40 -59 18 -54 36 -65 104 -65 51 0 62 -4 112 -42 31 -24 57 -46 57 -50 0 -14 -121 -19 -213 -9 -277 31 -493 209 -581 479 -18 52 -18 52 -72 52 -62 0 -62 0 -38 -81 23 -75 74 -175 125 -239 23 -30 46 -60 51 -67 12 -15 -216 -253 -243 -253 -24 0 -118 119 -204 259 -161 260 -267 321 -560 321 -146 0 -165 5 -165 42 0 15 -9 18 -60 18 -59 0 -60 0 -60 -29 z  m 3123 -138 c 39 -19 87 -52 114 -80 46 -46 81 -98 72 -107 -9 -8 -312 -57 -325 -52 -10 4 -14 26 -14 78 -1 45 -8 94 -20 128 -10 30 -16 58 -13 63 11 19 118 1 186 -30 z  m -2687 -4 c 139 -26 205 -81 324 -273 40 -66 106 -159 146 -207 62 -73 109 -116 266 -239 18 -14 18 -18 4 -57 -8 -23 -23 -81 -32 -129 -17 -86 -17 -86 -63 -81 -25 3 -100 15 -166 27 -87 16 -181 24 -344 29 -224 6 -224 6 -242 68 -21 74 -31 68 128 83 83 8 143 8 224 0 84 -8 114 -8 125 1 22 18 16 47 -13 66 -23 15 -51 18 -198 18 -93 0 -202 -4 -241 -8 -70 -8 -70 -8 -112 135 -73 255 -112 442 -112 543 0 35 0 35 123 35 68 0 150 -5 183 -11 z  m 1910 -45 c 74 -57 74 -57 74 -116 0 -102 46 -164 131 -175 29 -4 43 -12 49 -27 7 -19 30 -173 30 -202 0 -7 -26 -24 -57 -39 -32 -14 -65 -33 -74 -41 -29 -26 -50 -13 -71 43 -25 69 -89 137 -240 260 -269 218 -249 195 -190 208 72 17 171 67 211 109 19 20 41 36 49 36 8 0 48 -25 88 -56 z  m 1953 -19 c 38 -19 81 -71 81 -97 0 -17 -5 -19 -27 -15 -16 3 -66 13 -113 22 -67 13 -117 15 -232 11 -188 -7 -202 6 -38 39 14 2 61 16 105 29 91 28 183 33 224 11 z  M6092.633473533919 4788.090077043462 C 6092.633473533919 4738.5037158394744 6052.4357854423915 4698.306027747947 6002.849424238404 4698.306027747947 5953.2630630344165 4698.306027747947 5913.065374942889 4738.5037158394744 5913.065374942889 4788.090077043462 5913.065374942889 4837.6764382474494 5953.2630630344165 4877.8741263389766 6002.849424238404 4877.8741263389766 6052.4357854423915 4877.8741263389766 6092.633473533919 4837.6764382474494 6092.633473533919 4788.090077043462 Z M6050.0 4865.0  m 1900 -99 c 26 -54 25 -66 -4 -66 -33 0 -43 17 -48 83 -4 55 -4 56 13 41 10 -9 28 -35 39 -58 z  m -268 -85 c 135 -35 252 -107 370 -228 65 -67 148 -177 148 -196 0 -6 -26 -7 -67 -4 -38 4 -273 13 -523 22 -250 8 -471 17 -490 21 -34 6 -37 10 -59 72 -32 93 -74 163 -138 233 -31 33 -54 61 -52 63 10 8 423 33 570 35 134 1 180 -3 241 -18 z  m -2849 -50 c 72 -54 165 -99 256 -123 90 -24 277 -29 380 -9 34 7 65 11 67 8 2 -2 -35 -30 -83 -63 -89 -60 -239 -201 -283 -267 -16 -23 -33 -37 -47 -37 -40 0 -297 91 -386 137 -85 44 -207 127 -207 141 0 10 234 252 243 252 5 0 31 -18 60 -39 z  m 1958 -27 c 71 -52 125 -118 164 -201 40 -84 40 -83 19 -83 -31 0 -559 123 -571 133 -11 8 -20 145 -10 148 20 7 256 37 296 38 46 1 60 -4 102 -35 z  m -3846 -211 c -8 -21 -71 -177 -138 -348 -124 -310 -124 -310 -163 -309 -21 0 -68 9 -104 19 -123 35 -189 -4 -243 -143 -25 -62 -32 -72 -53 -72 -13 0 -32 4 -42 9 -9 5 -145 53 -302 107 -157 53 -293 105 -304 115 -23 21 -57 2 354 192 173 80 470 218 660 306 190 88 346 161 347 161 2 0 -4 -17 -12 -37 z  m 240 -218 c 230 -511 294 -656 300 -675 12 -38 20 -40 -568 141 -54 16 -109 34 -122 39 -23 9 -23 9 44 182 38 95 97 245 133 333 36 88 71 177 78 198 7 22 16 35 20 30 4 -4 56 -116 115 -248 z  m 2505 218 c 44 -50 57 -85 71 -190 14 -103 7 -163 -19 -163 -27 0 -95 -48 -119 -83 -57 -85 -25 -204 68 -252 45 -24 127 -19 178 10 44 26 44 26 203 -132 192 -191 213 -218 204 -270 -30 -180 -41 -223 -54 -223 -16 0 -168 138 -462 420 -246 235 -240 226 -251 449 -8 175 -22 238 -60 292 -23 33 -23 33 15 63 47 39 167 115 182 115 7 1 26 -16 44 -36 z  m 930 -108 c 284 -66 291 -68 337 -118 22 -24 52 -63 66 -88 40 -70 81 -239 57 -239 -6 0 -61 29 -123 64 -62 35 -195 109 -297 166 -186 103 -239 135 -252 155 -13 18 -9 105 5 105 6 0 100 -20 207 -45 z  M6346.295287898352 4027.7803854573954 C 6346.295287898352 3896.4295651948646 6239.814409380998 3789.94868667751 6108.463589118467 3789.94868667751 5977.112768855936 3789.94868667751 5870.631890338582 3896.4295651948646 5870.631890338582 4027.7803854573954 5870.631890338582 4159.131205719926 5977.112768855936 4265.6120842372807 6108.463589118467 4265.6120842372807 6239.814409380998 4265.6120842372807 6346.295287898352 4159.131205719926 6346.295287898352 4027.7803854573954 Z M6218.0 4241.0  m -1247 -171 c 107 -33 107 -33 56 -139 -27 -58 -52 -108 -54 -111 -2 -2 -25 4 -51 14 -26 10 -99 36 -162 58 -63 22 -120 45 -127 51 -9 9 -8 31 7 98 34 152 24 144 132 99 51 -21 141 -53 199 -70 z  m 2489 24 c 489 -113 625 -169 781 -324 128 -126 211 -264 257 -429 20 -71 20 -71 -4 -71 -25 0 -705 246 -959 346 -77 31 -187 79 -245 107 -105 52 -105 52 -117 147 -12 98 -37 181 -79 253 -13 23 -24 45 -24 48 0 10 81 -7 390 -77 z  m -710 -203 c 443 -246 627 -348 870 -483 311 -172 402 -230 488 -312 159 -152 248 -327 287 -569 19 -116 20 -247 3 -247 -7 0 -70 38 -140 83 -70 45 -191 122 -268 172 -77 49 -147 96 -154 105 -7 8 -18 68 -24 135 -20 200 -26 212 -169 301 -43 26 -150 93 -238 149 -88 56 -226 143 -306 194 -146 92 -146 92 -152 144 -5 45 -12 57 -50 92 -25 22 -135 96 -245 165 -201 125 -201 125 -202 178 0 28 4 52 8 52 4 0 136 -71 292 -159 z  m -970 32 c 7 -21 23 -57 36 -80 24 -42 24 -42 2 -57 -48 -34 -128 -7 -142 47 -9 38 8 81 44 105 18 12 36 22 41 22 4 0 13 -17 19 -37 z  m -1685 16 c 123 -9 410 -51 420 -60 1 -2 -4 -37 -13 -76 -12 -59 -19 -73 -34 -73 -10 0 -80 12 -156 26 -92 17 -195 28 -313 33 -96 4 -180 11 -186 14 -6 4 -13 29 -17 57 -4 28 -9 57 -12 65 -4 10 6 15 43 18 96 7 130 7 268 -4 z  m 708 -151 c 119 -41 147 -54 143 -67 -10 -30 -35 -136 -46 -193 -8 -43 -16 -58 -28 -58 -28 0 -293 97 -309 113 -16 16 -14 28 24 200 18 81 -2 81 216 5 z  m 1754 -34 c 193 -121 249 -161 267 -186 23 -32 23 -278 1 -278 -8 0 -50 22 -93 49 -131 82 -506 323 -520 334 -10 8 0 17 45 37 40 19 74 44 104 79 24 28 47 51 51 51 4 0 69 -39 145 -86 z  m -2337 -69 c 52 -8 130 -23 173 -32 77 -16 77 -16 77 -50 0 -82 27 -101 258 -178 141 -46 143 -47 137 -74 -3 -14 -14 -82 -24 -151 -18 -125 -18 -125 -119 -123 -125 2 -170 22 -202 90 -11 23 -20 49 -20 57 0 7 -16 45 -35 83 -86 172 -252 252 -521 253 -90 0 -124 4 -133 14 -7 8 -9 35 -4 76 6 63 6 63 162 57 86 -4 199 -13 251 -22 z  m -2342 -126 c 172 -60 317 -109 322 -109 25 0 17 -33 -36 -158 -210 -496 -201 -477 -226 -480 -21 -2 -35 24 -178 339 -262 579 -243 531 -217 523 12 -3 163 -55 335 -115 z  m 3582 112 c 0 -5 23 -34 50 -64 42 -46 50 -60 44 -81 -15 -60 34 -116 101 -116 35 0 89 -30 104 -58 16 -30 -11 -46 -85 -50 -106 -7 -182 45 -234 159 -22 49 -26 138 -9 188 10 29 29 43 29 22 z  m -2714 -80 c 142 -44 358 -109 479 -146 121 -36 224 -70 228 -74 8 -8 -330 -175 -378 -187 -18 -4 -36 1 -63 19 -58 38 -139 77 -160 77 -10 0 -27 -9 -37 -20 -15 -16 -17 -30 -11 -77 4 -32 8 -69 9 -82 2 -22 -15 -32 -198 -118 -497 -233 -565 -262 -565 -234 0 4 27 73 61 152 33 79 117 279 185 444 69 165 132 306 141 313 9 6 24 12 33 12 9 0 133 -36 276 -79 z  m 1371 -151 c 139 -24 219 -94 278 -243 66 -167 125 -211 312 -230 101 -11 102 -11 98 -37 -2 -14 -12 -72 -20 -130 -35 -224 -111 -381 -245 -502 -89 -80 -174 -132 -275 -165 -70 -23 -96 -27 -210 -27 -131 0 -237 15 -265 39 -8 7 -32 15 -53 18 -51 8 -167 88 -234 161 -52 58 -125 188 -139 248 -5 24 -2 28 45 48 127 55 222 242 192 379 -13 62 -44 126 -78 162 -24 26 -24 26 26 58 59 38 168 151 195 203 19 36 19 36 170 31 83 -2 175 -9 203 -13 z  m 2548 -188 c 472 -295 535 -344 630 -487 44 -67 87 -172 112 -272 33 -135 12 -493 -29 -493 -8 0 -182 161 -406 374 -32 31 -32 33 -23 83 22 114 30 211 21 245 -8 27 -62 84 -243 256 -127 121 -255 244 -283 274 -51 52 -52 54 -57 126 -4 73 -4 73 22 55 14 -9 130 -82 256 -161 z  m 465 48 c 186 -117 449 -284 513 -325 62 -40 62 -40 74 -120 15 -101 16 -145 3 -145 -10 0 -348 214 -615 389 -140 92 -140 92 -147 139 -3 26 -7 75 -7 110 -1 73 -23 79 179 -48 z  m -291 -567 c 54 -53 54 -53 47 -115 -12 -105 -17 -119 -37 -116 -9 2 -113 93 -229 202 -117 110 -232 218 -256 240 -44 41 -44 41 -23 143 22 102 22 102 233 -100 116 -111 235 -225 265 -254 z  m -3439 392 c 36 -26 79 -74 80 -87 0 -13 -29 -9 -99 11 -36 11 -93 27 -126 36 -65 19 -63 25 20 51 60 19 88 17 125 -11 z  m -207 -126 c 100 -31 100 -31 47 -60 -30 -16 -61 -36 -70 -44 -31 -28 -60 -17 -125 48 -51 51 -105 129 -105 151 0 3 34 -10 76 -29 42 -19 121 -49 177 -66 z  m 3018 -74 c 86 -85 86 -85 38 -85 -72 0 -126 52 -142 138 -4 21 -3 32 5 32 6 0 51 -38 99 -85 z  m -2711 -17 c 0 -7 -15 -42 -33 -77 -41 -83 -89 -122 -156 -129 -46 -4 -53 -2 -81 26 -16 17 -30 36 -30 42 0 30 131 114 219 140 41 13 81 11 81 -2 z  M5252.6984110916605 1842.93007710604184 C 5252.6984110916605 1799.48999515854695 5217.4832667980045 1764.27485086489065 5174.0431848505095 1764.27485086489065 5130.6031029030146 1764.27485086489065 5095.3879586093585 1799.48999515854695 5095.3879586093585 1842.93007710604184 5095.3879586093585 1886.3701590535367 5130.6031029030146 1921.585303347193 5174.0431848505095 1921.585303347193 5217.4832667980045 1921.585303347193 5252.6984110916605 1886.3701590535367 5252.6984110916605 1842.93007710604184 Z M5230.0 1900.0 "/><path d="M3887.624881405647 4751.6146837557976 C 3887.624881405647 4820.784443395631 3831.5517121740977 4876.8576126271805 3762.381952534264 4876.8576126271805 3693.2121928944307 4876.8576126271805 3637.1390236628813 4820.784443395631 3637.1390236628813 4751.6146837557976 3637.1390236628813 4682.444924115964 3693.2121928944307 4626.3717548844147 3762.381952534264 4626.3717548844147 3831.5517121740977 4626.3717548844147 3887.624881405647 4682.444924115964 3887.624881405647 4751.6146837557976 Z M3700.0 4858.0  m 94 -74 c 33 -32 13 -74 -36 -74 -40 0 -59 41 -33 70 22 24 48 26 69 4 z "/><path d="M 6107 3372 c -22 -24 -21 -55 1 -75 39 -36 82 -15 82 40 0 49 -51 71 -83 35 z "/><path d="M6264.92896147312 4027.0550323623256 C 6264.92896147312 4112.0916756944025 6195.9931415820165 4181.027495585506 6110.95649824994 4181.027495585506 6025.919854917863 4181.027495585506 5956.98403502676 4112.0916756944025 5956.98403502676 4027.0550323623256 5956.98403502676 3942.0183890302487 6025.919854917863 3873.082569139145 6110.95649824994 3873.082569139145 6195.9931415820165 3873.082569139145 6264.92896147312 3942.0183890302487 6264.92896147312 4027.0550323623256 Z M6032.0 4160.0  M6186.780295570716 4028.9622342467183 C 6186.780295570716 3986.7991397242545 6152.600354122395 3952.6191982759333 6110.437259599931 3952.6191982759333 6068.274165077467 3952.6191982759333 6034.094223629147 3986.7991397242545 6034.094223629147 4028.9622342467183 6034.094223629147 4071.125328769182 6068.274165077467 4105.305270217503 6110.437259599931 4105.305270217503 6152.600354122395 4105.305270217503 6186.780295570716 4071.125328769182 6186.780295570716 4028.9622342467183 Z M6161.0 4081.0 "/><path d="M4822.468747433812 4015.57267071526 C 4822.468747433812 4045.5635201342016 4798.15636029205 4069.8759072759635 4768.1655108731084 4069.8759072759635 4738.1746614541667 4069.8759072759635 4713.8622743124047 4045.5635201342016 4713.8622743124047 4015.57267071526 4713.8622743124047 3985.581821296318 4738.1746614541667 3961.269434154556 4768.1655108731084 3961.269434154556 4798.15636029205 3961.269434154556 4822.468747433812 3985.581821296318 4822.468747433812 4015.57267071526 Z M4730.0 4052.0 "/><path d="M4699.0105491916843 3225.4098111490127 C 4699.0105491916843 3254.5743566284557 4675.3680137434585 3278.2168920766815 4646.2034682640156 3278.2168920766815 4617.0389227845726 3278.2168920766815 4593.396387336347 3254.5743566284557 4593.396387336347 3225.4098111490127 4593.396387336347 3196.2452656695698 4617.0389227845726 3172.602730221344 4646.2034682640156 3172.602730221344 4675.3680137434585 3172.602730221344 4699.0105491916843 3196.2452656695698 4699.0105491916843 3225.4098111490127 Z M4603.0 3254.0 "/><path d="M4333.693323578298 2699.2071452480714 C 4333.693323578298 2859.010051360987 4204.1474722579956 2988.5559026812896 4044.34456614508 2988.5559026812896 3884.5416600321646 2988.5559026812896 3754.995808711862 2859.010051360987 3754.995808711862 2699.2071452480714 3754.995808711862 2539.4042391351558 3884.5416600321646 2409.8583878148531 4044.34456614508 2409.8583878148531 4204.1474722579956 2409.8583878148531 4333.693323578298 2539.4042391351558 4333.693323578298 2699.2071452480714 Z M3964.0 2979.0  M4170.8152637858466 2695.652966871829 C 4170.8152637858466 2626.9419443018155 4115.1139744261186 2571.2406549420876 4046.402951856105 2571.2406549420876 3977.6919292860916 2571.2406549420876 3921.9906399263637 2626.9419443018155 3921.9906399263637 2695.652966871829 3921.9906399263637 2764.3639894418425 3977.6919292860916 2820.0652788015705 4046.402951856105 2820.0652788015705 4115.1139744261186 2820.0652788015705 4170.8152637858466 2764.3639894418425 4170.8152637858466 2695.652966871829 Z M4110.0 2805.0 "/><path d="M 5117 5092 c 106 -98 283 -94 378 8 30 32 30 32 -50 25 -106 -8 -193 -8 -290 0 -80 6 -80 6 -38 -33 z "/></g>
</g>
</svg>
